<svg width="1120" height="48" viewBox="0 0 1120 48" fill="none" xmlns="http://www.w3.org/2000/svg">
<rect x="14.3335" y="0.5" width="53" height="19" rx="3.5" fill="#EDF7FF"/>
<path d="M28.0249 7.56534C27.9794 7.16193 27.7919 6.84943 27.4624 6.62784C27.1329 6.40341 26.7181 6.29119 26.2181 6.29119C25.8601 6.29119 25.5505 6.34801 25.2891 6.46165C25.0277 6.57244 24.8246 6.72585 24.6797 6.92188C24.5377 7.11506 24.4667 7.33523 24.4667 7.58239C24.4667 7.78977 24.515 7.96875 24.6116 8.11932C24.711 8.26989 24.8402 8.39631 24.9993 8.49858C25.1613 8.59801 25.3346 8.68182 25.5192 8.75C25.7039 8.81534 25.8814 8.86932 26.0519 8.91193L26.9042 9.13352C27.1826 9.2017 27.4681 9.29403 27.7607 9.41051C28.0533 9.52699 28.3246 9.6804 28.5746 9.87074C28.8246 10.0611 29.0263 10.2969 29.1797 10.5781C29.336 10.8594 29.4141 11.196 29.4141 11.5881C29.4141 12.0824 29.2863 12.5213 29.0306 12.9048C28.7777 13.2884 28.4098 13.5909 27.9269 13.8125C27.4468 14.0341 26.8658 14.1449 26.184 14.1449C25.5306 14.1449 24.9652 14.0412 24.488 13.8338C24.0107 13.6264 23.6371 13.3324 23.3672 12.9517C23.0973 12.5682 22.9482 12.1136 22.9198 11.5881H24.2408C24.2664 11.9034 24.3687 12.1662 24.5476 12.3764C24.7294 12.5838 24.961 12.7386 25.2422 12.8409C25.5263 12.9403 25.8374 12.9901 26.1755 12.9901C26.5476 12.9901 26.8786 12.9318 27.1684 12.8153C27.461 12.696 27.6911 12.5312 27.8587 12.321C28.0263 12.108 28.1101 11.8594 28.1101 11.5753C28.1101 11.3168 28.0363 11.1051 27.8885 10.9403C27.7437 10.7756 27.5462 10.6392 27.2962 10.5312C27.0491 10.4233 26.7692 10.3281 26.4567 10.2457L25.4255 9.96449C24.7266 9.77415 24.1726 9.49432 23.7635 9.125C23.3573 8.75568 23.1542 8.26705 23.1542 7.65909C23.1542 7.15625 23.2905 6.71733 23.5633 6.34233C23.836 5.96733 24.2053 5.67614 24.6712 5.46875C25.1371 5.25852 25.6627 5.15341 26.2479 5.15341C26.8388 5.15341 27.3601 5.2571 27.8118 5.46449C28.2664 5.67188 28.6243 5.95739 28.8857 6.32102C29.1471 6.68182 29.2834 7.09659 29.2948 7.56534H28.0249ZM33.9407 7.45455V8.47727H30.3655V7.45455H33.9407ZM31.3243 5.88636H32.5984V12.0781C32.5984 12.3253 32.6353 12.5114 32.7092 12.6364C32.7831 12.7585 32.8782 12.8423 32.9947 12.8878C33.114 12.9304 33.2433 12.9517 33.3825 12.9517C33.4848 12.9517 33.5743 12.9446 33.651 12.9304C33.7277 12.9162 33.7873 12.9048 33.8299 12.8963L34.0601 13.9489C33.9862 13.9773 33.8811 14.0057 33.7447 14.0341C33.6084 14.0653 33.4379 14.0824 33.2334 14.0852C32.8981 14.0909 32.5856 14.0312 32.2959 13.9062C32.0061 13.7812 31.7717 13.5881 31.5927 13.3267C31.4138 13.0653 31.3243 12.7372 31.3243 12.3423V5.88636ZM37.255 14.1449C36.8402 14.1449 36.4652 14.0682 36.13 13.9148C35.7948 13.7585 35.5292 13.5327 35.3331 13.2372C35.14 12.9418 35.0434 12.5795 35.0434 12.1506C35.0434 11.7812 35.1144 11.4773 35.2564 11.2386C35.3985 11 35.5902 10.8111 35.8317 10.6719C36.0732 10.5327 36.3431 10.4276 36.6414 10.3565C36.9397 10.2855 37.2437 10.2315 37.5533 10.1946C37.9454 10.1491 38.2635 10.1122 38.5079 10.0838C38.7522 10.0526 38.9297 10.0028 39.0405 9.93466C39.1513 9.86648 39.2067 9.75568 39.2067 9.60227V9.57244C39.2067 9.20028 39.1016 8.91193 38.8914 8.70739C38.684 8.50284 38.3743 8.40057 37.9624 8.40057C37.5334 8.40057 37.1954 8.49574 36.9482 8.68608C36.7039 8.87358 36.5348 9.08239 36.4411 9.3125L35.2437 9.03977C35.3857 8.64205 35.5931 8.32102 35.8658 8.0767C36.1414 7.82955 36.4581 7.65057 36.8161 7.53977C37.1741 7.42614 37.5505 7.36932 37.9454 7.36932C38.2067 7.36932 38.4837 7.40057 38.7763 7.46307C39.0718 7.52273 39.3473 7.63352 39.603 7.79545C39.8616 7.95739 40.0732 8.18892 40.238 8.49006C40.4027 8.78835 40.4851 9.17614 40.4851 9.65341V14H39.2408V13.1051H39.1897C39.1073 13.2699 38.9837 13.4318 38.8189 13.5909C38.6542 13.75 38.4425 13.8821 38.184 13.9872C37.9255 14.0923 37.6158 14.1449 37.255 14.1449ZM37.532 13.1222C37.8843 13.1222 38.1854 13.0526 38.4354 12.9134C38.6883 12.7741 38.88 12.5923 39.0107 12.3679C39.1442 12.1406 39.211 11.8977 39.211 11.6392V10.7955C39.1655 10.8409 39.0775 10.8835 38.9468 10.9233C38.8189 10.9602 38.6726 10.9929 38.5079 11.0213C38.3431 11.0469 38.1826 11.071 38.0263 11.0938C37.8701 11.1136 37.7394 11.1307 37.6343 11.1449C37.3871 11.1761 37.1613 11.2287 36.9567 11.3026C36.755 11.3764 36.5931 11.483 36.4709 11.6222C36.3516 11.7585 36.2919 11.9403 36.2919 12.1676C36.2919 12.483 36.4084 12.7216 36.6414 12.8835C36.8743 13.0426 37.1712 13.1222 37.532 13.1222ZM45.2376 7.45455V8.47727H41.6623V7.45455H45.2376ZM42.6211 5.88636H43.8953V12.0781C43.8953 12.3253 43.9322 12.5114 44.0061 12.6364C44.0799 12.7585 44.1751 12.8423 44.2916 12.8878C44.4109 12.9304 44.5402 12.9517 44.6794 12.9517C44.7816 12.9517 44.8711 12.9446 44.9478 12.9304C45.0245 12.9162 45.0842 12.9048 45.1268 12.8963L45.3569 13.9489C45.2831 13.9773 45.178 14.0057 45.0416 14.0341C44.9052 14.0653 44.7348 14.0824 44.5302 14.0852C44.195 14.0909 43.8825 14.0312 43.5927 13.9062C43.303 13.7812 43.0686 13.5881 42.8896 13.3267C42.7106 13.0653 42.6211 12.7372 42.6211 12.3423V5.88636ZM50.7934 11.2855V7.45455H52.0718V14H50.8189V12.8665H50.7508C50.6002 13.2159 50.3587 13.5071 50.0263 13.7401C49.6968 13.9702 49.2863 14.0852 48.7948 14.0852C48.3743 14.0852 48.0022 13.9929 47.6783 13.8082C47.3573 13.6207 47.1044 13.3438 46.9198 12.9773C46.738 12.6108 46.6471 12.1577 46.6471 11.6179V7.45455H47.9212V11.4645C47.9212 11.9105 48.0448 12.2656 48.2919 12.5298C48.5391 12.794 48.8601 12.9261 49.255 12.9261C49.4937 12.9261 49.7309 12.8665 49.9667 12.7472C50.2053 12.6278 50.4027 12.4474 50.559 12.206C50.7181 11.9645 50.7962 11.6577 50.7934 11.2855ZM58.6886 9.05256L57.5338 9.2571C57.4855 9.10937 57.4088 8.96875 57.3037 8.83523C57.2014 8.7017 57.0622 8.59233 56.8861 8.5071C56.7099 8.42187 56.4897 8.37926 56.2255 8.37926C55.8647 8.37926 55.5636 8.46023 55.3221 8.62216C55.0807 8.78125 54.9599 8.98722 54.9599 9.24006C54.9599 9.45881 55.0409 9.63494 55.2028 9.76847C55.3647 9.90199 55.6261 10.0114 55.9869 10.0966L57.0267 10.3352C57.629 10.4744 58.0778 10.6889 58.3733 10.9787C58.6687 11.2685 58.8165 11.6449 58.8165 12.108C58.8165 12.5 58.7028 12.8494 58.4755 13.1562C58.2511 13.4602 57.9372 13.6989 57.5338 13.8722C57.1332 14.0455 56.6687 14.1321 56.1403 14.1321C55.4074 14.1321 54.8093 13.9759 54.3463 13.6634C53.8832 13.348 53.5991 12.9006 53.494 12.321L54.7255 12.1335C54.8022 12.4545 54.9599 12.6974 55.1986 12.8622C55.4372 13.0241 55.7483 13.1051 56.1318 13.1051C56.5494 13.1051 56.8832 13.0185 57.1332 12.8452C57.3832 12.669 57.5082 12.4545 57.5082 12.2017C57.5082 11.9972 57.4315 11.8253 57.2781 11.6861C57.1275 11.5469 56.896 11.4418 56.5835 11.3707L55.4755 11.1278C54.8647 10.9886 54.413 10.767 54.1204 10.4631C53.8307 10.1591 53.6858 9.77415 53.6858 9.30824C53.6858 8.92187 53.7937 8.58381 54.0096 8.29403C54.2255 8.00426 54.5238 7.77841 54.9045 7.61648C55.2852 7.4517 55.7213 7.36932 56.2128 7.36932C56.9201 7.36932 57.477 7.52273 57.8832 7.82955C58.2895 8.13352 58.5579 8.54119 58.6886 9.05256Z" fill="#0F4C81"/>
<rect x="14.3335" y="0.5" width="53" height="19" rx="3.5" stroke="#AFC3D5"/>
<path d="M21.6597 39.0967H19.0005V38.0234H21.6597C22.1746 38.0234 22.5916 37.9414 22.9106 37.7773C23.2297 37.6133 23.4621 37.3854 23.6079 37.0938C23.7583 36.8021 23.8335 36.4694 23.8335 36.0957C23.8335 35.7539 23.7583 35.4326 23.6079 35.1318C23.4621 34.8311 23.2297 34.5895 22.9106 34.4072C22.5916 34.2204 22.1746 34.127 21.6597 34.127H19.3081V43H17.9888V33.0469H21.6597C22.4116 33.0469 23.0474 33.1768 23.5669 33.4365C24.0864 33.6963 24.4806 34.0563 24.7495 34.5166C25.0184 34.9723 25.1528 35.4941 25.1528 36.082C25.1528 36.7201 25.0184 37.2646 24.7495 37.7158C24.4806 38.167 24.0864 38.5111 23.5669 38.748C23.0474 38.9805 22.4116 39.0967 21.6597 39.0967ZM27.81 36.7656V43H26.5454V35.6035H27.7759L27.81 36.7656ZM30.1206 35.5625L30.1138 36.7383C30.0089 36.7155 29.9087 36.7018 29.813 36.6973C29.7218 36.6882 29.617 36.6836 29.4985 36.6836C29.2069 36.6836 28.9494 36.7292 28.7261 36.8203C28.5028 36.9115 28.3136 37.0391 28.1587 37.2031C28.0037 37.3672 27.8807 37.5632 27.7895 37.791C27.7029 38.0143 27.646 38.2604 27.6186 38.5293L27.2632 38.7344C27.2632 38.2878 27.3065 37.8685 27.3931 37.4766C27.4842 37.0846 27.6232 36.7383 27.81 36.4375C27.9969 36.1322 28.2339 35.8952 28.521 35.7266C28.8126 35.5534 29.159 35.4668 29.56 35.4668C29.6512 35.4668 29.756 35.4782 29.8745 35.501C29.993 35.5192 30.075 35.5397 30.1206 35.5625ZM32.5796 35.6035V43H31.3081V35.6035H32.5796ZM31.2124 33.6416C31.2124 33.4365 31.2739 33.2633 31.3969 33.1221C31.5245 32.9808 31.7114 32.9102 31.9575 32.9102C32.199 32.9102 32.3836 32.9808 32.5112 33.1221C32.6434 33.2633 32.7094 33.4365 32.7094 33.6416C32.7094 33.8376 32.6434 34.0062 32.5112 34.1475C32.3836 34.2842 32.199 34.3525 31.9575 34.3525C31.7114 34.3525 31.5245 34.2842 31.3969 34.1475C31.2739 34.0062 31.2124 33.8376 31.2124 33.6416ZM35.7836 37.0732V43H34.5122V35.6035H35.7153L35.7836 37.0732ZM35.5239 39.0215L34.936 39.001C34.9405 38.4951 35.0066 38.028 35.1342 37.5996C35.2618 37.1667 35.451 36.7907 35.7016 36.4717C35.9523 36.1527 36.2644 35.9066 36.6381 35.7334C37.0118 35.5557 37.4448 35.4668 37.937 35.4668C38.2833 35.4668 38.6023 35.5169 38.894 35.6172C39.1857 35.7129 39.4386 35.8656 39.6528 36.0752C39.867 36.2848 40.0333 36.5537 40.1518 36.8818C40.2703 37.21 40.3295 37.6064 40.3295 38.0713V43H39.0649V38.1328C39.0649 37.7454 38.9988 37.4355 38.8667 37.2031C38.739 36.9707 38.5568 36.8021 38.3198 36.6973C38.0828 36.5879 37.8048 36.5332 37.4858 36.5332C37.1121 36.5332 36.7999 36.5993 36.5493 36.7314C36.2986 36.8636 36.0981 37.0459 35.9477 37.2783C35.7973 37.5107 35.6879 37.7773 35.6196 38.0781C35.5558 38.3743 35.5239 38.6888 35.5239 39.0215ZM40.3159 38.3242L39.4682 38.584C39.4728 38.1784 39.5389 37.7887 39.6665 37.415C39.7986 37.0413 39.9877 36.7087 40.2338 36.417C40.4845 36.1253 40.7921 35.8952 41.1567 35.7266C41.5213 35.5534 41.9383 35.4668 42.4077 35.4668C42.8042 35.4668 43.1551 35.5192 43.4604 35.624C43.7703 35.7288 44.0301 35.8906 44.2397 36.1094C44.4539 36.3236 44.6157 36.5993 44.725 36.9365C44.8344 37.2738 44.8891 37.6748 44.8891 38.1396V43H43.6176V38.126C43.6176 37.7113 43.5515 37.39 43.4194 37.1621C43.2918 36.9297 43.1095 36.7679 42.8725 36.6768C42.6401 36.5811 42.3621 36.5332 42.0385 36.5332C41.7605 36.5332 41.5144 36.5811 41.3002 36.6768C41.0861 36.7725 40.906 36.9046 40.7602 37.0732C40.6144 37.2373 40.5027 37.4264 40.4252 37.6406C40.3523 37.8548 40.3159 38.0827 40.3159 38.3242ZM51.0805 41.7354V37.9277C51.0805 37.6361 51.0213 37.3831 50.9028 37.1689C50.7888 36.9502 50.6157 36.7816 50.3832 36.6631C50.1508 36.5446 49.8637 36.4854 49.5219 36.4854C49.2029 36.4854 48.9226 36.54 48.6811 36.6494C48.4441 36.7588 48.2573 36.9023 48.1205 37.0801C47.9884 37.2578 47.9223 37.4492 47.9223 37.6543H46.6577C46.6577 37.39 46.726 37.1279 46.8627 36.8682C46.9994 36.6084 47.1954 36.3737 47.4506 36.1641C47.7104 35.9499 48.0203 35.7812 48.3803 35.6582C48.7449 35.5306 49.1505 35.4668 49.5971 35.4668C50.1349 35.4668 50.6088 35.5579 51.019 35.7402C51.4337 35.9225 51.7573 36.1982 51.9897 36.5674C52.2267 36.932 52.3452 37.39 52.3452 37.9414V41.3867C52.3452 41.6328 52.3657 41.8949 52.4067 42.1729C52.4522 42.4508 52.5183 42.6901 52.6049 42.8906V43H51.2856C51.2218 42.8542 51.1716 42.6605 51.1352 42.4189C51.0987 42.1729 51.0805 41.945 51.0805 41.7354ZM51.2993 38.5156L51.3129 39.4043H50.0346C49.6746 39.4043 49.3533 39.4339 49.0707 39.4932C48.7882 39.5479 48.5512 39.6322 48.3598 39.7461C48.1684 39.86 48.0226 40.0036 47.9223 40.1768C47.822 40.3454 47.7719 40.5436 47.7719 40.7715C47.7719 41.0039 47.8243 41.2158 47.9291 41.4072C48.034 41.5986 48.1912 41.7513 48.4008 41.8652C48.615 41.9746 48.8771 42.0293 49.1869 42.0293C49.5743 42.0293 49.9161 41.9473 50.2123 41.7832C50.5086 41.6191 50.7433 41.4186 50.9164 41.1816C51.0942 40.9447 51.1899 40.7145 51.2036 40.4912L51.7436 41.0996C51.7117 41.291 51.6251 41.5029 51.4838 41.7354C51.3425 41.9678 51.1534 42.1911 50.9164 42.4053C50.684 42.6149 50.406 42.7904 50.0825 42.9316C49.7634 43.0684 49.4034 43.1367 49.0024 43.1367C48.5011 43.1367 48.0613 43.0387 47.683 42.8428C47.3093 42.6468 47.0177 42.3848 46.808 42.0566C46.603 41.724 46.5004 41.3525 46.5004 40.9424C46.5004 40.5459 46.5779 40.1973 46.7328 39.8965C46.8878 39.5911 47.1111 39.3382 47.4028 39.1377C47.6944 38.9326 48.0453 38.7777 48.4555 38.6729C48.8657 38.568 49.3237 38.5156 49.8295 38.5156H51.2993ZM55.5151 36.7656V43H54.2504V35.6035H55.4809L55.5151 36.7656ZM57.8256 35.5625L57.8188 36.7383C57.714 36.7155 57.6137 36.7018 57.518 36.6973C57.4268 36.6882 57.322 36.6836 57.2035 36.6836C56.9119 36.6836 56.6544 36.7292 56.4311 36.8203C56.2078 36.9115 56.0186 37.0391 55.8637 37.2031C55.7087 37.3672 55.5857 37.5632 55.4946 37.791C55.408 38.0143 55.351 38.2604 55.3237 38.5293L54.9682 38.7344C54.9682 38.2878 55.0115 37.8685 55.0981 37.4766C55.1892 37.0846 55.3282 36.7383 55.5151 36.4375C55.7019 36.1322 55.9389 35.8952 56.226 35.7266C56.5177 35.5534 56.864 35.4668 57.2651 35.4668C57.3562 35.4668 57.461 35.4782 57.5795 35.501C57.698 35.5192 57.78 35.5397 57.8256 35.5625ZM61.1117 42.2344L63.1693 35.6035H64.5229L61.5561 44.1416C61.4877 44.3239 61.3966 44.5199 61.2826 44.7295C61.1732 44.9437 61.032 45.1465 60.8588 45.3379C60.6856 45.5293 60.476 45.6842 60.2299 45.8027C59.9883 45.9258 59.699 45.9873 59.3617 45.9873C59.2615 45.9873 59.1339 45.9736 58.9789 45.9463C58.824 45.9189 58.7146 45.8962 58.6508 45.8779L58.6439 44.8525C58.6804 44.8571 58.7374 44.8617 58.8148 44.8662C58.8969 44.8753 58.9538 44.8799 58.9857 44.8799C59.2729 44.8799 59.5167 44.8411 59.7172 44.7637C59.9177 44.6908 60.0863 44.5654 60.223 44.3877C60.3643 44.2145 60.4851 43.9753 60.5854 43.6699L61.1117 42.2344ZM59.601 35.6035L61.5219 41.3457L61.85 42.6787L60.9408 43.1436L58.2201 35.6035H59.601Z" fill="#757575"/>
<rect x="222" y="0.5" width="53" height="19" rx="3.5" fill="#EBFAFF"/>
<path d="M235.691 7.56534C235.646 7.16193 235.458 6.84943 235.129 6.62784C234.799 6.40341 234.385 6.29119 233.885 6.29119C233.527 6.29119 233.217 6.34801 232.956 6.46165C232.694 6.57244 232.491 6.72585 232.346 6.92188C232.204 7.11506 232.133 7.33523 232.133 7.58239C232.133 7.78977 232.181 7.96875 232.278 8.11932C232.377 8.26989 232.507 8.39631 232.666 8.49858C232.828 8.59801 233.001 8.68182 233.186 8.75C233.37 8.81534 233.548 8.86932 233.718 8.91193L234.571 9.13352C234.849 9.2017 235.135 9.29403 235.427 9.41051C235.72 9.52699 235.991 9.6804 236.241 9.87074C236.491 10.0611 236.693 10.2969 236.846 10.5781C237.002 10.8594 237.081 11.196 237.081 11.5881C237.081 12.0824 236.953 12.5213 236.697 12.9048C236.444 13.2884 236.076 13.5909 235.593 13.8125C235.113 14.0341 234.532 14.1449 233.85 14.1449C233.197 14.1449 232.632 14.0412 232.154 13.8338C231.677 13.6264 231.304 13.3324 231.034 12.9517C230.764 12.5682 230.615 12.1136 230.586 11.5881H231.907C231.933 11.9034 232.035 12.1662 232.214 12.3764C232.396 12.5838 232.627 12.7386 232.909 12.8409C233.193 12.9403 233.504 12.9901 233.842 12.9901C234.214 12.9901 234.545 12.9318 234.835 12.8153C235.127 12.696 235.358 12.5312 235.525 12.321C235.693 12.108 235.777 11.8594 235.777 11.5753C235.777 11.3168 235.703 11.1051 235.555 10.9403C235.41 10.7756 235.213 10.6392 234.963 10.5312C234.716 10.4233 234.436 10.3281 234.123 10.2457L233.092 9.96449C232.393 9.77415 231.839 9.49432 231.43 9.125C231.024 8.75568 230.821 8.26705 230.821 7.65909C230.821 7.15625 230.957 6.71733 231.23 6.34233C231.502 5.96733 231.872 5.67614 232.338 5.46875C232.804 5.25852 233.329 5.15341 233.914 5.15341C234.505 5.15341 235.027 5.2571 235.478 5.46449C235.933 5.67188 236.291 5.95739 236.552 6.32102C236.814 6.68182 236.95 7.09659 236.961 7.56534H235.691ZM241.607 7.45455V8.47727H238.032V7.45455H241.607ZM238.991 5.88636H240.265V12.0781C240.265 12.3253 240.302 12.5114 240.376 12.6364C240.45 12.7585 240.545 12.8423 240.661 12.8878C240.781 12.9304 240.91 12.9517 241.049 12.9517C241.151 12.9517 241.241 12.9446 241.317 12.9304C241.394 12.9162 241.454 12.9048 241.496 12.8963L241.727 13.9489C241.653 13.9773 241.548 14.0057 241.411 14.0341C241.275 14.0653 241.104 14.0824 240.9 14.0852C240.565 14.0909 240.252 14.0312 239.962 13.9062C239.673 13.7812 239.438 13.5881 239.259 13.3267C239.08 13.0653 238.991 12.7372 238.991 12.3423V5.88636ZM244.922 14.1449C244.507 14.1449 244.132 14.0682 243.797 13.9148C243.461 13.7585 243.196 13.5327 243 13.2372C242.806 12.9418 242.71 12.5795 242.71 12.1506C242.71 11.7812 242.781 11.4773 242.923 11.2386C243.065 11 243.257 10.8111 243.498 10.6719C243.74 10.5327 244.01 10.4276 244.308 10.3565C244.606 10.2855 244.91 10.2315 245.22 10.1946C245.612 10.1491 245.93 10.1122 246.174 10.0838C246.419 10.0526 246.596 10.0028 246.707 9.93466C246.818 9.86648 246.873 9.75568 246.873 9.60227V9.57244C246.873 9.20028 246.768 8.91193 246.558 8.70739C246.35 8.50284 246.041 8.40057 245.629 8.40057C245.2 8.40057 244.862 8.49574 244.615 8.68608C244.37 8.87358 244.201 9.08239 244.108 9.3125L242.91 9.03977C243.052 8.64205 243.26 8.32102 243.532 8.0767C243.808 7.82955 244.125 7.65057 244.483 7.53977C244.841 7.42614 245.217 7.36932 245.612 7.36932C245.873 7.36932 246.15 7.40057 246.443 7.46307C246.738 7.52273 247.014 7.63352 247.27 7.79545C247.528 7.95739 247.74 8.18892 247.904 8.49006C248.069 8.78835 248.152 9.17614 248.152 9.65341V14H246.907V13.1051H246.856C246.774 13.2699 246.65 13.4318 246.485 13.5909C246.321 13.75 246.109 13.8821 245.85 13.9872C245.592 14.0923 245.282 14.1449 244.922 14.1449ZM245.199 13.1222C245.551 13.1222 245.852 13.0526 246.102 12.9134C246.355 12.7741 246.547 12.5923 246.677 12.3679C246.811 12.1406 246.877 11.8977 246.877 11.6392V10.7955C246.832 10.8409 246.744 10.8835 246.613 10.9233C246.485 10.9602 246.339 10.9929 246.174 11.0213C246.01 11.0469 245.849 11.071 245.693 11.0938C245.537 11.1136 245.406 11.1307 245.301 11.1449C245.054 11.1761 244.828 11.2287 244.623 11.3026C244.422 11.3764 244.26 11.483 244.137 11.6222C244.018 11.7585 243.958 11.9403 243.958 12.1676C243.958 12.483 244.075 12.7216 244.308 12.8835C244.541 13.0426 244.838 13.1222 245.199 13.1222ZM252.904 7.45455V8.47727H249.329V7.45455H252.904ZM250.288 5.88636H251.562V12.0781C251.562 12.3253 251.599 12.5114 251.673 12.6364C251.746 12.7585 251.842 12.8423 251.958 12.8878C252.077 12.9304 252.207 12.9517 252.346 12.9517C252.448 12.9517 252.538 12.9446 252.614 12.9304C252.691 12.9162 252.751 12.9048 252.793 12.8963L253.023 13.9489C252.95 13.9773 252.844 14.0057 252.708 14.0341C252.572 14.0653 252.401 14.0824 252.197 14.0852C251.862 14.0909 251.549 14.0312 251.259 13.9062C250.969 13.7812 250.735 13.5881 250.556 13.3267C250.377 13.0653 250.288 12.7372 250.288 12.3423V5.88636ZM258.46 11.2855V7.45455H259.738V14H258.485V12.8665H258.417C258.267 13.2159 258.025 13.5071 257.693 13.7401C257.363 13.9702 256.953 14.0852 256.461 14.0852C256.041 14.0852 255.669 13.9929 255.345 13.8082C255.024 13.6207 254.771 13.3438 254.586 12.9773C254.404 12.6108 254.314 12.1577 254.314 11.6179V7.45455H255.588V11.4645C255.588 11.9105 255.711 12.2656 255.958 12.5298C256.206 12.794 256.527 12.9261 256.922 12.9261C257.16 12.9261 257.397 12.8665 257.633 12.7472C257.872 12.6278 258.069 12.4474 258.225 12.206C258.385 11.9645 258.463 11.6577 258.46 11.2855ZM266.355 9.05256L265.2 9.2571C265.152 9.10937 265.075 8.96875 264.97 8.83523C264.868 8.7017 264.729 8.59233 264.553 8.5071C264.376 8.42187 264.156 8.37926 263.892 8.37926C263.531 8.37926 263.23 8.46023 262.989 8.62216C262.747 8.78125 262.626 8.98722 262.626 9.24006C262.626 9.45881 262.707 9.63494 262.869 9.76847C263.031 9.90199 263.293 10.0114 263.653 10.0966L264.693 10.3352C265.295 10.4744 265.744 10.6889 266.04 10.9787C266.335 11.2685 266.483 11.6449 266.483 12.108C266.483 12.5 266.369 12.8494 266.142 13.1562C265.918 13.4602 265.604 13.6989 265.2 13.8722C264.8 14.0455 264.335 14.1321 263.807 14.1321C263.074 14.1321 262.476 13.9759 262.013 13.6634C261.55 13.348 261.266 12.9006 261.161 12.321L262.392 12.1335C262.469 12.4545 262.626 12.6974 262.865 12.8622C263.104 13.0241 263.415 13.1051 263.798 13.1051C264.216 13.1051 264.55 13.0185 264.8 12.8452C265.05 12.669 265.175 12.4545 265.175 12.2017C265.175 11.9972 265.098 11.8253 264.945 11.6861C264.794 11.5469 264.562 11.4418 264.25 11.3707L263.142 11.1278C262.531 10.9886 262.08 10.767 261.787 10.4631C261.497 10.1591 261.352 9.77415 261.352 9.30824C261.352 8.92187 261.46 8.58381 261.676 8.29403C261.892 8.00426 262.19 7.77841 262.571 7.61648C262.952 7.4517 263.388 7.36932 263.879 7.36932C264.587 7.36932 265.143 7.52273 265.55 7.82955C265.956 8.13352 266.224 8.54119 266.355 9.05256Z" fill="#29BAED"/>
<rect x="222" y="0.5" width="53" height="19" rx="3.5" stroke="#B8E8F9"/>
<path d="M221.96 40.4844C221.96 40.252 221.924 40.0469 221.851 39.8691C221.782 39.6868 221.659 39.5228 221.481 39.377C221.308 39.2311 221.067 39.0921 220.757 38.96C220.451 38.8278 220.064 38.6934 219.595 38.5566C219.103 38.4108 218.658 38.249 218.262 38.0713C217.865 37.889 217.526 37.6816 217.243 37.4492C216.961 37.2168 216.744 36.9502 216.594 36.6494C216.443 36.3486 216.368 36.0046 216.368 35.6172C216.368 35.2298 216.448 34.8721 216.607 34.5439C216.767 34.2158 216.995 33.931 217.291 33.6895C217.592 33.4434 217.95 33.252 218.364 33.1152C218.779 32.9785 219.242 32.9102 219.752 32.9102C220.499 32.9102 221.133 33.0537 221.652 33.3408C222.176 33.6234 222.575 33.9948 222.849 34.4551C223.122 34.9108 223.259 35.3984 223.259 35.918H221.946C221.946 35.5443 221.867 35.2139 221.707 34.9268C221.548 34.6351 221.306 34.4072 220.982 34.2432C220.659 34.0745 220.249 33.9902 219.752 33.9902C219.283 33.9902 218.895 34.0609 218.59 34.2021C218.285 34.3434 218.057 34.5348 217.906 34.7764C217.76 35.0179 217.688 35.2936 217.688 35.6035C217.688 35.8132 217.731 36.0046 217.817 36.1777C217.909 36.3464 218.048 36.5036 218.234 36.6494C218.426 36.7952 218.667 36.9297 218.959 37.0527C219.255 37.1758 219.608 37.2943 220.019 37.4082C220.584 37.5677 221.071 37.7454 221.481 37.9414C221.892 38.1374 222.229 38.3584 222.493 38.6045C222.762 38.846 222.96 39.1217 223.088 39.4316C223.22 39.737 223.286 40.0833 223.286 40.4707C223.286 40.8763 223.204 41.2432 223.04 41.5713C222.876 41.8994 222.641 42.1797 222.336 42.4121C222.031 42.6445 221.664 42.8245 221.235 42.9521C220.812 43.0752 220.338 43.1367 219.813 43.1367C219.353 43.1367 218.9 43.0729 218.453 42.9453C218.011 42.8177 217.608 42.6263 217.243 42.3711C216.883 42.1159 216.594 41.8014 216.375 41.4277C216.161 41.0495 216.054 40.612 216.054 40.1152H217.366C217.366 40.457 217.432 40.751 217.564 40.9971C217.697 41.2386 217.877 41.4391 218.104 41.5986C218.337 41.7581 218.599 41.8766 218.891 41.9541C219.187 42.027 219.494 42.0635 219.813 42.0635C220.274 42.0635 220.663 41.9997 220.982 41.8721C221.301 41.7445 221.543 41.5622 221.707 41.3252C221.876 41.0882 221.96 40.8079 221.96 40.4844ZM227.762 43.1367C227.247 43.1367 226.78 43.0501 226.36 42.877C225.946 42.6992 225.588 42.4508 225.287 42.1318C224.991 41.8128 224.763 41.4346 224.604 40.9971C224.444 40.5596 224.364 40.0811 224.364 39.5615V39.2744C224.364 38.6729 224.453 38.1374 224.631 37.668C224.809 37.194 225.05 36.793 225.355 36.4648C225.661 36.1367 226.007 35.8883 226.395 35.7197C226.782 35.5511 227.183 35.4668 227.598 35.4668C228.126 35.4668 228.582 35.5579 228.965 35.7402C229.352 35.9225 229.669 36.1777 229.915 36.5059C230.161 36.8294 230.343 37.2122 230.462 37.6543C230.58 38.0918 230.64 38.5703 230.64 39.0898V39.6572H225.116V38.625H229.375V38.5293C229.357 38.2012 229.288 37.8822 229.17 37.5723C229.056 37.2624 228.874 37.0072 228.623 36.8066C228.372 36.6061 228.031 36.5059 227.598 36.5059C227.311 36.5059 227.046 36.5674 226.805 36.6904C226.563 36.8089 226.356 36.9867 226.183 37.2236C226.009 37.4606 225.875 37.75 225.779 38.0918C225.684 38.4336 225.636 38.8278 225.636 39.2744V39.5615C225.636 39.9124 225.684 40.2428 225.779 40.5527C225.88 40.8581 226.023 41.127 226.21 41.3594C226.401 41.5918 226.631 41.7741 226.9 41.9062C227.174 42.0384 227.484 42.1045 227.83 42.1045C228.277 42.1045 228.655 42.0133 228.965 41.8311C229.275 41.6488 229.546 41.4049 229.778 41.0996L230.544 41.708C230.384 41.9495 230.182 42.1797 229.936 42.3984C229.689 42.6172 229.386 42.7949 229.026 42.9316C228.671 43.0684 228.249 43.1367 227.762 43.1367ZM234.992 42.0977C235.293 42.0977 235.571 42.0361 235.826 41.9131C236.081 41.79 236.291 41.6214 236.455 41.4072C236.619 41.1885 236.713 40.9401 236.735 40.6621H237.938C237.916 41.0996 237.768 41.5075 237.494 41.8857C237.225 42.2594 236.872 42.5625 236.435 42.7949C235.997 43.0228 235.516 43.1367 234.992 43.1367C234.436 43.1367 233.951 43.0387 233.536 42.8428C233.126 42.6468 232.784 42.3779 232.511 42.0361C232.242 41.6943 232.039 41.3024 231.902 40.8604C231.77 40.4137 231.704 39.9421 231.704 39.4453V39.1582C231.704 38.6615 231.77 38.1921 231.902 37.75C232.039 37.3034 232.242 36.9092 232.511 36.5674C232.784 36.2256 233.126 35.9567 233.536 35.7607C233.951 35.5648 234.436 35.4668 234.992 35.4668C235.571 35.4668 236.077 35.5853 236.51 35.8223C236.943 36.0547 237.282 36.3737 237.528 36.7793C237.779 37.1803 237.916 37.6361 237.938 38.1465H236.735C236.713 37.8411 236.626 37.5654 236.476 37.3193C236.33 37.0732 236.129 36.8773 235.874 36.7314C235.623 36.5811 235.329 36.5059 234.992 36.5059C234.605 36.5059 234.279 36.5833 234.015 36.7383C233.755 36.8887 233.547 37.0938 233.393 37.3535C233.242 37.6087 233.133 37.8936 233.064 38.208C233.001 38.5179 232.969 38.8346 232.969 39.1582V39.4453C232.969 39.7689 233.001 40.0879 233.064 40.4023C233.128 40.7168 233.235 41.0016 233.386 41.2568C233.541 41.512 233.748 41.7171 234.008 41.8721C234.272 42.0225 234.6 42.0977 234.992 42.0977ZM238.941 39.3838V39.2266C238.941 38.6934 239.019 38.1989 239.174 37.7432C239.329 37.2829 239.552 36.8841 239.844 36.5469C240.135 36.2051 240.489 35.9408 240.903 35.7539C241.318 35.5625 241.783 35.4668 242.298 35.4668C242.817 35.4668 243.284 35.5625 243.699 35.7539C244.118 35.9408 244.474 36.2051 244.766 36.5469C245.062 36.8841 245.287 37.2829 245.442 37.7432C245.597 38.1989 245.675 38.6934 245.675 39.2266V39.3838C245.675 39.917 245.597 40.4115 245.442 40.8672C245.287 41.3229 245.062 41.7217 244.766 42.0635C244.474 42.4007 244.121 42.665 243.706 42.8564C243.296 43.0433 242.831 43.1367 242.311 43.1367C241.792 43.1367 241.325 43.0433 240.91 42.8564C240.495 42.665 240.14 42.4007 239.844 42.0635C239.552 41.7217 239.329 41.3229 239.174 40.8672C239.019 40.4115 238.941 39.917 238.941 39.3838ZM240.206 39.2266V39.3838C240.206 39.7529 240.249 40.1016 240.336 40.4297C240.422 40.7533 240.552 41.0404 240.726 41.291C240.903 41.5417 241.124 41.7399 241.389 41.8857C241.653 42.027 241.961 42.0977 242.311 42.0977C242.658 42.0977 242.961 42.027 243.221 41.8857C243.485 41.7399 243.704 41.5417 243.877 41.291C244.05 41.0404 244.18 40.7533 244.267 40.4297C244.358 40.1016 244.403 39.7529 244.403 39.3838V39.2266C244.403 38.862 244.358 38.5179 244.267 38.1943C244.18 37.8662 244.048 37.5768 243.87 37.3262C243.697 37.071 243.478 36.8704 243.214 36.7246C242.954 36.5788 242.649 36.5059 242.298 36.5059C241.951 36.5059 241.646 36.5788 241.382 36.7246C241.122 36.8704 240.903 37.071 240.726 37.3262C240.552 37.5768 240.422 37.8662 240.336 38.1943C240.249 38.5179 240.206 38.862 240.206 39.2266ZM248.441 37.1826V43H247.177V35.6035H248.373L248.441 37.1826ZM248.141 39.0215L247.614 39.001C247.619 38.4951 247.694 38.028 247.84 37.5996C247.986 37.1667 248.191 36.7907 248.455 36.4717C248.719 36.1527 249.034 35.9066 249.398 35.7334C249.768 35.5557 250.175 35.4668 250.622 35.4668C250.987 35.4668 251.315 35.5169 251.606 35.6172C251.898 35.7129 252.146 35.8678 252.351 36.082C252.561 36.2962 252.721 36.5742 252.83 36.916C252.939 37.2533 252.994 37.6657 252.994 38.1533V43H251.723V38.1396C251.723 37.7523 251.666 37.4424 251.552 37.21C251.438 36.973 251.271 36.8021 251.053 36.6973C250.834 36.5879 250.565 36.5332 250.246 36.5332C249.932 36.5332 249.644 36.5993 249.385 36.7314C249.129 36.8636 248.908 37.0459 248.722 37.2783C248.539 37.5107 248.396 37.7773 248.291 38.0781C248.191 38.3743 248.141 38.6888 248.141 39.0215ZM259.493 41.5645V32.5H260.765V43H259.602L259.493 41.5645ZM254.517 39.3838V39.2402C254.517 38.6751 254.585 38.1624 254.722 37.7021C254.863 37.2373 255.061 36.8385 255.316 36.5059C255.576 36.1732 255.884 35.918 256.239 35.7402C256.599 35.5579 257 35.4668 257.442 35.4668C257.907 35.4668 258.313 35.5488 258.659 35.7129C259.01 35.8724 259.306 36.1071 259.548 36.417C259.794 36.7223 259.988 37.0915 260.129 37.5244C260.27 37.9574 260.368 38.4473 260.423 38.9941V39.623C260.373 40.1654 260.275 40.653 260.129 41.0859C259.988 41.5189 259.794 41.888 259.548 42.1934C259.306 42.4987 259.01 42.7334 258.659 42.8975C258.308 43.057 257.898 43.1367 257.429 43.1367C256.996 43.1367 256.599 43.0433 256.239 42.8564C255.884 42.6696 255.576 42.4076 255.316 42.0703C255.061 41.7331 254.863 41.3366 254.722 40.8809C254.585 40.4206 254.517 39.9215 254.517 39.3838ZM255.788 39.2402V39.3838C255.788 39.7529 255.824 40.0993 255.897 40.4229C255.975 40.7464 256.093 41.0312 256.253 41.2773C256.412 41.5234 256.615 41.7171 256.861 41.8584C257.107 41.9951 257.401 42.0635 257.743 42.0635C258.162 42.0635 258.506 41.9746 258.775 41.7969C259.049 41.6191 259.268 41.3844 259.432 41.0928C259.596 40.8011 259.723 40.4844 259.814 40.1426V38.4951C259.76 38.2445 259.68 38.0029 259.575 37.7705C259.475 37.5335 259.343 37.3239 259.179 37.1416C259.019 36.9548 258.821 36.8066 258.584 36.6973C258.351 36.5879 258.076 36.5332 257.757 36.5332C257.41 36.5332 257.112 36.6061 256.861 36.752C256.615 36.8932 256.412 37.0892 256.253 37.3398C256.093 37.5859 255.975 37.873 255.897 38.2012C255.824 38.5247 255.788 38.8711 255.788 39.2402ZM267.011 41.7354V37.9277C267.011 37.6361 266.951 37.3831 266.833 37.1689C266.719 36.9502 266.546 36.7816 266.313 36.6631C266.081 36.5446 265.794 36.4854 265.452 36.4854C265.133 36.4854 264.853 36.54 264.611 36.6494C264.374 36.7588 264.187 36.9023 264.051 37.0801C263.919 37.2578 263.852 37.4492 263.852 37.6543H262.588C262.588 37.39 262.656 37.1279 262.793 36.8682C262.93 36.6084 263.126 36.3737 263.381 36.1641C263.641 35.9499 263.95 35.7812 264.31 35.6582C264.675 35.5306 265.081 35.4668 265.527 35.4668C266.065 35.4668 266.539 35.5579 266.949 35.7402C267.364 35.9225 267.687 36.1982 267.92 36.5674C268.157 36.932 268.275 37.39 268.275 37.9414V41.3867C268.275 41.6328 268.296 41.8949 268.337 42.1729C268.382 42.4508 268.448 42.6901 268.535 42.8906V43H267.216C267.152 42.8542 267.102 42.6605 267.065 42.4189C267.029 42.1729 267.011 41.945 267.011 41.7354ZM267.229 38.5156L267.243 39.4043H265.965C265.605 39.4043 265.283 39.4339 265.001 39.4932C264.718 39.5479 264.481 39.6322 264.29 39.7461C264.099 39.86 263.953 40.0036 263.852 40.1768C263.752 40.3454 263.702 40.5436 263.702 40.7715C263.702 41.0039 263.754 41.2158 263.859 41.4072C263.964 41.5986 264.121 41.7513 264.331 41.8652C264.545 41.9746 264.807 42.0293 265.117 42.0293C265.504 42.0293 265.846 41.9473 266.142 41.7832C266.439 41.6191 266.673 41.4186 266.847 41.1816C267.024 40.9447 267.12 40.7145 267.134 40.4912L267.674 41.0996C267.642 41.291 267.555 41.5029 267.414 41.7354C267.273 41.9678 267.084 42.1911 266.847 42.4053C266.614 42.6149 266.336 42.7904 266.013 42.9316C265.694 43.0684 265.334 43.1367 264.933 43.1367C264.431 43.1367 263.991 43.0387 263.613 42.8428C263.239 42.6468 262.948 42.3848 262.738 42.0566C262.533 41.724 262.431 41.3525 262.431 40.9424C262.431 40.5459 262.508 40.1973 262.663 39.8965C262.818 39.5911 263.041 39.3382 263.333 39.1377C263.625 38.9326 263.975 38.7777 264.386 38.6729C264.796 38.568 265.254 38.5156 265.76 38.5156H267.229ZM271.445 36.7656V43H270.181V35.6035H271.411L271.445 36.7656ZM273.756 35.5625L273.749 36.7383C273.644 36.7155 273.544 36.7018 273.448 36.6973C273.357 36.6882 273.252 36.6836 273.134 36.6836C272.842 36.6836 272.585 36.7292 272.361 36.8203C272.138 36.9115 271.949 37.0391 271.794 37.2031C271.639 37.3672 271.516 37.5632 271.425 37.791C271.338 38.0143 271.281 38.2604 271.254 38.5293L270.898 38.7344C270.898 38.2878 270.942 37.8685 271.028 37.4766C271.119 37.0846 271.258 36.7383 271.445 36.4375C271.632 36.1322 271.869 35.8952 272.156 35.7266C272.448 35.5534 272.794 35.4668 273.195 35.4668C273.286 35.4668 273.391 35.4782 273.51 35.501C273.628 35.5192 273.71 35.5397 273.756 35.5625ZM277.042 42.2344L279.099 35.6035H280.453L277.486 44.1416C277.418 44.3239 277.327 44.5199 277.213 44.7295C277.103 44.9437 276.962 45.1465 276.789 45.3379C276.616 45.5293 276.406 45.6842 276.16 45.8027C275.918 45.9258 275.629 45.9873 275.292 45.9873C275.192 45.9873 275.064 45.9736 274.909 45.9463C274.754 45.9189 274.645 45.8962 274.581 45.8779L274.574 44.8525C274.611 44.8571 274.668 44.8617 274.745 44.8662C274.827 44.8753 274.884 44.8799 274.916 44.8799C275.203 44.8799 275.447 44.8411 275.647 44.7637C275.848 44.6908 276.016 44.5654 276.153 44.3877C276.294 44.2145 276.415 43.9753 276.515 43.6699L277.042 42.2344ZM275.531 35.6035L277.452 41.3457L277.78 42.6787L276.871 43.1436L274.15 35.6035H275.531Z" fill="#757575"/>
<rect x="429.667" y="0.5" width="53" height="19" rx="3.5" fill="#FFF1F1"/>
<path d="M443.358 7.56534C443.313 7.16193 443.125 6.84943 442.796 6.62784C442.466 6.40341 442.052 6.29119 441.552 6.29119C441.194 6.29119 440.884 6.34801 440.623 6.46165C440.361 6.57244 440.158 6.72585 440.013 6.92188C439.871 7.11506 439.8 7.33523 439.8 7.58239C439.8 7.78977 439.848 7.96875 439.945 8.11932C440.044 8.26989 440.174 8.39631 440.333 8.49858C440.495 8.59801 440.668 8.68182 440.853 8.75C441.037 8.81534 441.215 8.86932 441.385 8.91193L442.238 9.13352C442.516 9.2017 442.802 9.29403 443.094 9.41051C443.387 9.52699 443.658 9.6804 443.908 9.87074C444.158 10.0611 444.36 10.2969 444.513 10.5781C444.669 10.8594 444.748 11.196 444.748 11.5881C444.748 12.0824 444.62 12.5213 444.364 12.9048C444.111 13.2884 443.743 13.5909 443.26 13.8125C442.78 14.0341 442.199 14.1449 441.517 14.1449C440.864 14.1449 440.299 14.0412 439.821 13.8338C439.344 13.6264 438.971 13.3324 438.701 12.9517C438.431 12.5682 438.282 12.1136 438.253 11.5881H439.574C439.6 11.9034 439.702 12.1662 439.881 12.3764C440.063 12.5838 440.294 12.7386 440.576 12.8409C440.86 12.9403 441.171 12.9901 441.509 12.9901C441.881 12.9901 442.212 12.9318 442.502 12.8153C442.794 12.696 443.025 12.5312 443.192 12.321C443.36 12.108 443.444 11.8594 443.444 11.5753C443.444 11.3168 443.37 11.1051 443.222 10.9403C443.077 10.7756 442.88 10.6392 442.63 10.5312C442.383 10.4233 442.103 10.3281 441.79 10.2457L440.759 9.96449C440.06 9.77415 439.506 9.49432 439.097 9.125C438.691 8.75568 438.488 8.26705 438.488 7.65909C438.488 7.15625 438.624 6.71733 438.897 6.34233C439.169 5.96733 439.539 5.67614 440.005 5.46875C440.471 5.25852 440.996 5.15341 441.581 5.15341C442.172 5.15341 442.694 5.2571 443.145 5.46449C443.6 5.67188 443.958 5.95739 444.219 6.32102C444.481 6.68182 444.617 7.09659 444.628 7.56534H443.358ZM449.274 7.45455V8.47727H445.699V7.45455H449.274ZM446.658 5.88636H447.932V12.0781C447.932 12.3253 447.969 12.5114 448.043 12.6364C448.117 12.7585 448.212 12.8423 448.328 12.8878C448.448 12.9304 448.577 12.9517 448.716 12.9517C448.818 12.9517 448.908 12.9446 448.984 12.9304C449.061 12.9162 449.121 12.9048 449.163 12.8963L449.394 13.9489C449.32 13.9773 449.215 14.0057 449.078 14.0341C448.942 14.0653 448.771 14.0824 448.567 14.0852C448.232 14.0909 447.919 14.0312 447.629 13.9062C447.34 13.7812 447.105 13.5881 446.926 13.3267C446.747 13.0653 446.658 12.7372 446.658 12.3423V5.88636ZM452.589 14.1449C452.174 14.1449 451.799 14.0682 451.464 13.9148C451.128 13.7585 450.863 13.5327 450.667 13.2372C450.473 12.9418 450.377 12.5795 450.377 12.1506C450.377 11.7812 450.448 11.4773 450.59 11.2386C450.732 11 450.924 10.8111 451.165 10.6719C451.407 10.5327 451.677 10.4276 451.975 10.3565C452.273 10.2855 452.577 10.2315 452.887 10.1946C453.279 10.1491 453.597 10.1122 453.841 10.0838C454.086 10.0526 454.263 10.0028 454.374 9.93466C454.485 9.86648 454.54 9.75568 454.54 9.60227V9.57244C454.54 9.20028 454.435 8.91193 454.225 8.70739C454.017 8.50284 453.708 8.40057 453.296 8.40057C452.867 8.40057 452.529 8.49574 452.282 8.68608C452.037 8.87358 451.868 9.08239 451.775 9.3125L450.577 9.03977C450.719 8.64205 450.927 8.32102 451.199 8.0767C451.475 7.82955 451.792 7.65057 452.15 7.53977C452.508 7.42614 452.884 7.36932 453.279 7.36932C453.54 7.36932 453.817 7.40057 454.11 7.46307C454.405 7.52273 454.681 7.63352 454.937 7.79545C455.195 7.95739 455.407 8.18892 455.571 8.49006C455.736 8.78835 455.819 9.17614 455.819 9.65341V14H454.574V13.1051H454.523C454.441 13.2699 454.317 13.4318 454.152 13.5909C453.988 13.75 453.776 13.8821 453.517 13.9872C453.259 14.0923 452.949 14.1449 452.589 14.1449ZM452.866 13.1222C453.218 13.1222 453.519 13.0526 453.769 12.9134C454.022 12.7741 454.214 12.5923 454.344 12.3679C454.478 12.1406 454.544 11.8977 454.544 11.6392V10.7955C454.499 10.8409 454.411 10.8835 454.28 10.9233C454.152 10.9602 454.006 10.9929 453.841 11.0213C453.677 11.0469 453.516 11.071 453.36 11.0938C453.204 11.1136 453.073 11.1307 452.968 11.1449C452.721 11.1761 452.495 11.2287 452.29 11.3026C452.089 11.3764 451.927 11.483 451.804 11.6222C451.685 11.7585 451.625 11.9403 451.625 12.1676C451.625 12.483 451.742 12.7216 451.975 12.8835C452.208 13.0426 452.505 13.1222 452.866 13.1222ZM460.571 7.45455V8.47727H456.996V7.45455H460.571ZM457.955 5.88636H459.229V12.0781C459.229 12.3253 459.266 12.5114 459.34 12.6364C459.413 12.7585 459.509 12.8423 459.625 12.8878C459.744 12.9304 459.874 12.9517 460.013 12.9517C460.115 12.9517 460.205 12.9446 460.281 12.9304C460.358 12.9162 460.418 12.9048 460.46 12.8963L460.69 13.9489C460.617 13.9773 460.511 14.0057 460.375 14.0341C460.239 14.0653 460.068 14.0824 459.864 14.0852C459.528 14.0909 459.216 14.0312 458.926 13.9062C458.636 13.7812 458.402 13.5881 458.223 13.3267C458.044 13.0653 457.955 12.7372 457.955 12.3423V5.88636ZM466.127 11.2855V7.45455H467.405V14H466.152V12.8665H466.084C465.934 13.2159 465.692 13.5071 465.36 13.7401C465.03 13.9702 464.62 14.0852 464.128 14.0852C463.708 14.0852 463.336 13.9929 463.012 13.8082C462.691 13.6207 462.438 13.3438 462.253 12.9773C462.071 12.6108 461.981 12.1577 461.981 11.6179V7.45455H463.255V11.4645C463.255 11.9105 463.378 12.2656 463.625 12.5298C463.873 12.794 464.194 12.9261 464.589 12.9261C464.827 12.9261 465.064 12.8665 465.3 12.7472C465.539 12.6278 465.736 12.4474 465.892 12.206C466.052 11.9645 466.13 11.6577 466.127 11.2855ZM474.022 9.05256L472.867 9.2571C472.819 9.10937 472.742 8.96875 472.637 8.83523C472.535 8.7017 472.396 8.59233 472.22 8.5071C472.043 8.42187 471.823 8.37926 471.559 8.37926C471.198 8.37926 470.897 8.46023 470.656 8.62216C470.414 8.78125 470.293 8.98722 470.293 9.24006C470.293 9.45881 470.374 9.63494 470.536 9.76847C470.698 9.90199 470.96 10.0114 471.32 10.0966L472.36 10.3352C472.962 10.4744 473.411 10.6889 473.707 10.9787C474.002 11.2685 474.15 11.6449 474.15 12.108C474.15 12.5 474.036 12.8494 473.809 13.1562C473.585 13.4602 473.271 13.6989 472.867 13.8722C472.467 14.0455 472.002 14.1321 471.474 14.1321C470.741 14.1321 470.143 13.9759 469.68 13.6634C469.217 13.348 468.933 12.9006 468.828 12.321L470.059 12.1335C470.136 12.4545 470.293 12.6974 470.532 12.8622C470.771 13.0241 471.082 13.1051 471.465 13.1051C471.883 13.1051 472.217 13.0185 472.467 12.8452C472.717 12.669 472.842 12.4545 472.842 12.2017C472.842 11.9972 472.765 11.8253 472.612 11.6861C472.461 11.5469 472.229 11.4418 471.917 11.3707L470.809 11.1278C470.198 10.9886 469.747 10.767 469.454 10.4631C469.164 10.1591 469.019 9.77415 469.019 9.30824C469.019 8.92187 469.127 8.58381 469.343 8.29403C469.559 8.00426 469.857 7.77841 470.238 7.61648C470.619 7.4517 471.055 7.36932 471.546 7.36932C472.254 7.36932 472.81 7.52273 473.217 7.82955C473.623 8.13352 473.891 8.54119 474.022 9.05256Z" fill="#FB4141"/>
<rect x="429.667" y="0.5" width="53" height="19" rx="3.5" stroke="#FEC0C0"/>
<path d="M437.516 43H435.438L435.451 41.9268H437.516C438.227 41.9268 438.819 41.7786 439.293 41.4824C439.767 41.1816 440.122 40.7624 440.359 40.2246C440.601 39.6823 440.722 39.0488 440.722 38.3242V37.7158C440.722 37.1462 440.653 36.6403 440.517 36.1982C440.38 35.7516 440.179 35.3757 439.915 35.0703C439.651 34.7604 439.327 34.5257 438.944 34.3662C438.566 34.2067 438.131 34.127 437.639 34.127H435.396V33.0469H437.639C438.29 33.0469 438.885 33.1562 439.423 33.375C439.961 33.5892 440.423 33.9014 440.811 34.3115C441.202 34.7171 441.503 35.2093 441.713 35.7881C441.923 36.3623 442.027 37.0094 442.027 37.7295V38.3242C442.027 39.0443 441.923 39.6937 441.713 40.2725C441.503 40.8467 441.2 41.3366 440.804 41.7422C440.412 42.1478 439.938 42.46 439.382 42.6787C438.83 42.8929 438.208 43 437.516 43ZM436.142 33.0469V43H434.822V33.0469H436.142ZM448.096 41.7354V37.9277C448.096 37.6361 448.036 37.3831 447.918 37.1689C447.804 36.9502 447.631 36.7816 447.398 36.6631C447.166 36.5446 446.879 36.4854 446.537 36.4854C446.218 36.4854 445.938 36.54 445.696 36.6494C445.459 36.7588 445.272 36.9023 445.136 37.0801C445.004 37.2578 444.937 37.4492 444.937 37.6543H443.673C443.673 37.39 443.741 37.1279 443.878 36.8682C444.015 36.6084 444.211 36.3737 444.466 36.1641C444.726 35.9499 445.035 35.7812 445.395 35.6582C445.76 35.5306 446.166 35.4668 446.612 35.4668C447.15 35.4668 447.624 35.5579 448.034 35.7402C448.449 35.9225 448.772 36.1982 449.005 36.5674C449.242 36.932 449.36 37.39 449.36 37.9414V41.3867C449.36 41.6328 449.381 41.8949 449.422 42.1729C449.467 42.4508 449.534 42.6901 449.62 42.8906V43H448.301C448.237 42.8542 448.187 42.6605 448.15 42.4189C448.114 42.1729 448.096 41.945 448.096 41.7354ZM448.314 38.5156L448.328 39.4043H447.05C446.69 39.4043 446.368 39.4339 446.086 39.4932C445.803 39.5479 445.566 39.6322 445.375 39.7461C445.184 39.86 445.038 40.0036 444.937 40.1768C444.837 40.3454 444.787 40.5436 444.787 40.7715C444.787 41.0039 444.84 41.2158 444.944 41.4072C445.049 41.5986 445.206 41.7513 445.416 41.8652C445.63 41.9746 445.892 42.0293 446.202 42.0293C446.59 42.0293 446.931 41.9473 447.228 41.7832C447.524 41.6191 447.758 41.4186 447.932 41.1816C448.109 40.9447 448.205 40.7145 448.219 40.4912L448.759 41.0996C448.727 41.291 448.64 41.5029 448.499 41.7354C448.358 41.9678 448.169 42.1911 447.932 42.4053C447.699 42.6149 447.421 42.7904 447.098 42.9316C446.779 43.0684 446.419 43.1367 446.018 43.1367C445.516 43.1367 445.076 43.0387 444.698 42.8428C444.325 42.6468 444.033 42.3848 443.823 42.0566C443.618 41.724 443.516 41.3525 443.516 40.9424C443.516 40.5459 443.593 40.1973 443.748 39.8965C443.903 39.5911 444.126 39.3382 444.418 39.1377C444.71 38.9326 445.061 38.7777 445.471 38.6729C445.881 38.568 446.339 38.5156 446.845 38.5156H448.314ZM452.53 37.1826V43H451.266V35.6035H452.462L452.53 37.1826ZM452.229 39.0215L451.703 39.001C451.708 38.4951 451.783 38.028 451.929 37.5996C452.075 37.1667 452.28 36.7907 452.544 36.4717C452.808 36.1527 453.123 35.9066 453.487 35.7334C453.856 35.5557 454.264 35.4668 454.711 35.4668C455.075 35.4668 455.404 35.5169 455.695 35.6172C455.987 35.7129 456.235 35.8678 456.44 36.082C456.65 36.2962 456.81 36.5742 456.919 36.916C457.028 37.2533 457.083 37.6657 457.083 38.1533V43H455.811V38.1396C455.811 37.7523 455.755 37.4424 455.641 37.21C455.527 36.973 455.36 36.8021 455.142 36.6973C454.923 36.5879 454.654 36.5332 454.335 36.5332C454.02 36.5332 453.733 36.5993 453.474 36.7314C453.218 36.8636 452.997 37.0459 452.811 37.2783C452.628 37.5107 452.485 37.7773 452.38 38.0781C452.28 38.3743 452.229 38.6888 452.229 39.0215ZM463.712 35.6035H464.86V42.8428C464.86 43.4945 464.728 44.0505 464.464 44.5107C464.199 44.971 463.83 45.3197 463.356 45.5566C462.887 45.7982 462.345 45.9189 461.729 45.9189C461.474 45.9189 461.173 45.8779 460.827 45.7959C460.485 45.7184 460.148 45.584 459.815 45.3926C459.487 45.2057 459.212 44.9528 458.988 44.6338L459.651 43.8818C459.961 44.2555 460.285 44.5153 460.622 44.6611C460.964 44.807 461.301 44.8799 461.634 44.8799C462.035 44.8799 462.381 44.8047 462.673 44.6543C462.964 44.5039 463.19 44.2806 463.35 43.9844C463.514 43.6927 463.596 43.3327 463.596 42.9043V37.2305L463.712 35.6035ZM458.619 39.3838V39.2402C458.619 38.6751 458.685 38.1624 458.817 37.7021C458.954 37.2373 459.148 36.8385 459.398 36.5059C459.654 36.1732 459.961 35.918 460.321 35.7402C460.681 35.5579 461.087 35.4668 461.538 35.4668C462.003 35.4668 462.408 35.5488 462.755 35.7129C463.106 35.8724 463.402 36.1071 463.644 36.417C463.89 36.7223 464.083 37.0915 464.225 37.5244C464.366 37.9574 464.464 38.4473 464.519 38.9941V39.623C464.468 40.1654 464.37 40.653 464.225 41.0859C464.083 41.5189 463.89 41.888 463.644 42.1934C463.402 42.4987 463.106 42.7334 462.755 42.8975C462.404 43.057 461.994 43.1367 461.524 43.1367C461.082 43.1367 460.681 43.0433 460.321 42.8564C459.966 42.6696 459.66 42.4076 459.405 42.0703C459.15 41.7331 458.954 41.3366 458.817 40.8809C458.685 40.4206 458.619 39.9215 458.619 39.3838ZM459.884 39.2402V39.3838C459.884 39.7529 459.92 40.0993 459.993 40.4229C460.071 40.7464 460.187 41.0312 460.342 41.2773C460.501 41.5234 460.704 41.7171 460.95 41.8584C461.196 41.9951 461.49 42.0635 461.832 42.0635C462.251 42.0635 462.598 41.9746 462.871 41.7969C463.144 41.6191 463.361 41.3844 463.52 41.0928C463.685 40.8011 463.812 40.4844 463.903 40.1426V38.4951C463.853 38.2445 463.776 38.0029 463.671 37.7705C463.571 37.5335 463.438 37.3239 463.274 37.1416C463.115 36.9548 462.917 36.8066 462.68 36.6973C462.443 36.5879 462.165 36.5332 461.846 36.5332C461.499 36.5332 461.201 36.6061 460.95 36.752C460.704 36.8932 460.501 37.0892 460.342 37.3398C460.187 37.5859 460.071 37.873 459.993 38.2012C459.92 38.5247 459.884 38.8711 459.884 39.2402ZM469.767 43.1367C469.252 43.1367 468.784 43.0501 468.365 42.877C467.95 42.6992 467.593 42.4508 467.292 42.1318C466.996 41.8128 466.768 41.4346 466.608 40.9971C466.449 40.5596 466.369 40.0811 466.369 39.5615V39.2744C466.369 38.6729 466.458 38.1374 466.636 37.668C466.813 37.194 467.055 36.793 467.36 36.4648C467.666 36.1367 468.012 35.8883 468.399 35.7197C468.787 35.5511 469.188 35.4668 469.602 35.4668C470.131 35.4668 470.587 35.5579 470.97 35.7402C471.357 35.9225 471.674 36.1777 471.92 36.5059C472.166 36.8294 472.348 37.2122 472.467 37.6543C472.585 38.0918 472.644 38.5703 472.644 39.0898V39.6572H467.121V38.625H471.38V38.5293C471.362 38.2012 471.293 37.8822 471.175 37.5723C471.061 37.2624 470.879 37.0072 470.628 36.8066C470.377 36.6061 470.035 36.5059 469.602 36.5059C469.315 36.5059 469.051 36.5674 468.81 36.6904C468.568 36.8089 468.361 36.9867 468.187 37.2236C468.014 37.4606 467.88 37.75 467.784 38.0918C467.688 38.4336 467.641 38.8278 467.641 39.2744V39.5615C467.641 39.9124 467.688 40.2428 467.784 40.5527C467.884 40.8581 468.028 41.127 468.215 41.3594C468.406 41.5918 468.636 41.7741 468.905 41.9062C469.179 42.0384 469.489 42.1045 469.835 42.1045C470.282 42.1045 470.66 42.0133 470.97 41.8311C471.28 41.6488 471.551 41.4049 471.783 41.0996L472.549 41.708C472.389 41.9495 472.186 42.1797 471.94 42.3984C471.694 42.6172 471.391 42.7949 471.031 42.9316C470.676 43.0684 470.254 43.1367 469.767 43.1367ZM475.302 36.7656V43H474.037V35.6035H475.268L475.302 36.7656ZM477.612 35.5625L477.605 36.7383C477.501 36.7155 477.4 36.7018 477.305 36.6973C477.213 36.6882 477.109 36.6836 476.99 36.6836C476.698 36.6836 476.441 36.7292 476.218 36.8203C475.994 36.9115 475.805 37.0391 475.65 37.2031C475.495 37.3672 475.372 37.5632 475.281 37.791C475.195 38.0143 475.138 38.2604 475.11 38.5293L474.755 38.7344C474.755 38.2878 474.798 37.8685 474.885 37.4766C474.976 37.0846 475.115 36.7383 475.302 36.4375C475.489 36.1322 475.726 35.8952 476.013 35.7266C476.304 35.5534 476.651 35.4668 477.052 35.4668C477.143 35.4668 477.248 35.4782 477.366 35.501C477.485 35.5192 477.567 35.5397 477.612 35.5625Z" fill="#757575"/>
<rect x="637.333" y="0.5" width="53" height="19" rx="3.5" fill="#FFF9ED"/>
<path d="M651.025 7.56534C650.979 7.16193 650.792 6.84943 650.462 6.62784C650.133 6.40341 649.718 6.29119 649.218 6.29119C648.86 6.29119 648.55 6.34801 648.289 6.46165C648.028 6.57244 647.825 6.72585 647.68 6.92188C647.538 7.11506 647.467 7.33523 647.467 7.58239C647.467 7.78977 647.515 7.96875 647.612 8.11932C647.711 8.26989 647.84 8.39631 647.999 8.49858C648.161 8.59801 648.335 8.68182 648.519 8.75C648.704 8.81534 648.881 8.86932 649.052 8.91193L649.904 9.13352C650.183 9.2017 650.468 9.29403 650.761 9.41051C651.053 9.52699 651.325 9.6804 651.575 9.87074C651.825 10.0611 652.026 10.2969 652.18 10.5781C652.336 10.8594 652.414 11.196 652.414 11.5881C652.414 12.0824 652.286 12.5213 652.031 12.9048C651.778 13.2884 651.41 13.5909 650.927 13.8125C650.447 14.0341 649.866 14.1449 649.184 14.1449C648.531 14.1449 647.965 14.0412 647.488 13.8338C647.011 13.6264 646.637 13.3324 646.367 12.9517C646.097 12.5682 645.948 12.1136 645.92 11.5881H647.241C647.266 11.9034 647.369 12.1662 647.548 12.3764C647.729 12.5838 647.961 12.7386 648.242 12.8409C648.526 12.9403 648.837 12.9901 649.175 12.9901C649.548 12.9901 649.879 12.9318 650.168 12.8153C650.461 12.696 650.691 12.5312 650.859 12.321C651.026 12.108 651.11 11.8594 651.11 11.5753C651.11 11.3168 651.036 11.1051 650.889 10.9403C650.744 10.7756 650.546 10.6392 650.296 10.5312C650.049 10.4233 649.769 10.3281 649.457 10.2457L648.425 9.96449C647.727 9.77415 647.173 9.49432 646.764 9.125C646.357 8.75568 646.154 8.26705 646.154 7.65909C646.154 7.15625 646.291 6.71733 646.563 6.34233C646.836 5.96733 647.205 5.67614 647.671 5.46875C648.137 5.25852 648.663 5.15341 649.248 5.15341C649.839 5.15341 650.36 5.2571 650.812 5.46449C651.266 5.67188 651.624 5.95739 651.886 6.32102C652.147 6.68182 652.283 7.09659 652.295 7.56534H651.025ZM656.941 7.45455V8.47727H653.365V7.45455H656.941ZM654.324 5.88636H655.598V12.0781C655.598 12.3253 655.635 12.5114 655.709 12.6364C655.783 12.7585 655.878 12.8423 655.995 12.8878C656.114 12.9304 656.243 12.9517 656.383 12.9517C656.485 12.9517 656.574 12.9446 656.651 12.9304C656.728 12.9162 656.787 12.9048 656.83 12.8963L657.06 13.9489C656.986 13.9773 656.881 14.0057 656.745 14.0341C656.608 14.0653 656.438 14.0824 656.233 14.0852C655.898 14.0909 655.586 14.0312 655.296 13.9062C655.006 13.7812 654.772 13.5881 654.593 13.3267C654.414 13.0653 654.324 12.7372 654.324 12.3423V5.88636ZM660.255 14.1449C659.84 14.1449 659.465 14.0682 659.13 13.9148C658.795 13.7585 658.529 13.5327 658.333 13.2372C658.14 12.9418 658.043 12.5795 658.043 12.1506C658.043 11.7812 658.114 11.4773 658.256 11.2386C658.398 11 658.59 10.8111 658.832 10.6719C659.073 10.5327 659.343 10.4276 659.641 10.3565C659.94 10.2855 660.244 10.2315 660.553 10.1946C660.945 10.1491 661.264 10.1122 661.508 10.0838C661.752 10.0526 661.93 10.0028 662.041 9.93466C662.151 9.86648 662.207 9.75568 662.207 9.60227V9.57244C662.207 9.20028 662.102 8.91193 661.891 8.70739C661.684 8.50284 661.374 8.40057 660.962 8.40057C660.533 8.40057 660.195 8.49574 659.948 8.68608C659.704 8.87358 659.535 9.08239 659.441 9.3125L658.244 9.03977C658.386 8.64205 658.593 8.32102 658.866 8.0767C659.141 7.82955 659.458 7.65057 659.816 7.53977C660.174 7.42614 660.55 7.36932 660.945 7.36932C661.207 7.36932 661.484 7.40057 661.776 7.46307C662.072 7.52273 662.347 7.63352 662.603 7.79545C662.862 7.95739 663.073 8.18892 663.238 8.49006C663.403 8.78835 663.485 9.17614 663.485 9.65341V14H662.241V13.1051H662.19C662.107 13.2699 661.984 13.4318 661.819 13.5909C661.654 13.75 661.443 13.8821 661.184 13.9872C660.925 14.0923 660.616 14.1449 660.255 14.1449ZM660.532 13.1222C660.884 13.1222 661.185 13.0526 661.435 12.9134C661.688 12.7741 661.88 12.5923 662.011 12.3679C662.144 12.1406 662.211 11.8977 662.211 11.6392V10.7955C662.166 10.8409 662.077 10.8835 661.947 10.9233C661.819 10.9602 661.673 10.9929 661.508 11.0213C661.343 11.0469 661.183 11.071 661.026 11.0938C660.87 11.1136 660.739 11.1307 660.634 11.1449C660.387 11.1761 660.161 11.2287 659.957 11.3026C659.755 11.3764 659.593 11.483 659.471 11.6222C659.352 11.7585 659.292 11.9403 659.292 12.1676C659.292 12.483 659.408 12.7216 659.641 12.8835C659.874 13.0426 660.171 13.1222 660.532 13.1222ZM668.238 7.45455V8.47727H664.662V7.45455H668.238ZM665.621 5.88636H666.895V12.0781C666.895 12.3253 666.932 12.5114 667.006 12.6364C667.08 12.7585 667.175 12.8423 667.292 12.8878C667.411 12.9304 667.54 12.9517 667.679 12.9517C667.782 12.9517 667.871 12.9446 667.948 12.9304C668.025 12.9162 668.084 12.9048 668.127 12.8963L668.357 13.9489C668.283 13.9773 668.178 14.0057 668.042 14.0341C667.905 14.0653 667.735 14.0824 667.53 14.0852C667.195 14.0909 666.883 14.0312 666.593 13.9062C666.303 13.7812 666.069 13.5881 665.89 13.3267C665.711 13.0653 665.621 12.7372 665.621 12.3423V5.88636ZM673.793 11.2855V7.45455H675.072V14H673.819V12.8665H673.751C673.6 13.2159 673.359 13.5071 673.026 13.7401C672.697 13.9702 672.286 14.0852 671.795 14.0852C671.374 14.0852 671.002 13.9929 670.678 13.8082C670.357 13.6207 670.104 13.3438 669.92 12.9773C669.738 12.6108 669.647 12.1577 669.647 11.6179V7.45455H670.921V11.4645C670.921 11.9105 671.045 12.2656 671.292 12.5298C671.539 12.794 671.86 12.9261 672.255 12.9261C672.494 12.9261 672.731 12.8665 672.967 12.7472C673.205 12.6278 673.403 12.4474 673.559 12.206C673.718 11.9645 673.796 11.6577 673.793 11.2855ZM681.689 9.05256L680.534 9.2571C680.485 9.10937 680.409 8.96875 680.304 8.83523C680.201 8.7017 680.062 8.59233 679.886 8.5071C679.71 8.42187 679.49 8.37926 679.226 8.37926C678.865 8.37926 678.564 8.46023 678.322 8.62216C678.081 8.78125 677.96 8.98722 677.96 9.24006C677.96 9.45881 678.041 9.63494 678.203 9.76847C678.365 9.90199 678.626 10.0114 678.987 10.0966L680.027 10.3352C680.629 10.4744 681.078 10.6889 681.373 10.9787C681.669 11.2685 681.816 11.6449 681.816 12.108C681.816 12.5 681.703 12.8494 681.476 13.1562C681.251 13.4602 680.937 13.6989 680.534 13.8722C680.133 14.0455 679.669 14.1321 679.14 14.1321C678.407 14.1321 677.809 13.9759 677.346 13.6634C676.883 13.348 676.599 12.9006 676.494 12.321L677.726 12.1335C677.802 12.4545 677.96 12.6974 678.199 12.8622C678.437 13.0241 678.748 13.1051 679.132 13.1051C679.549 13.1051 679.883 13.0185 680.133 12.8452C680.383 12.669 680.508 12.4545 680.508 12.2017C680.508 11.9972 680.432 11.8253 680.278 11.6861C680.128 11.5469 679.896 11.4418 679.583 11.3707L678.476 11.1278C677.865 10.9886 677.413 10.767 677.12 10.4631C676.831 10.1591 676.686 9.77415 676.686 9.30824C676.686 8.92187 676.794 8.58381 677.01 8.29403C677.226 8.00426 677.524 7.77841 677.905 7.61648C678.285 7.4517 678.721 7.36932 679.213 7.36932C679.92 7.36932 680.477 7.52273 680.883 7.82955C681.289 8.13352 681.558 8.54119 681.689 9.05256Z" fill="#FF9900"/>
<rect x="637.333" y="0.5" width="53" height="19" rx="3.5" stroke="#FDCD69"/>
<path d="M642.107 39.9922L644.083 33.0469H645.04L644.486 35.7471L642.36 43H641.41L642.107 39.9922ZM640.063 33.0469L641.635 39.8555L642.107 43H641.164L638.75 33.0469H640.063ZM647.596 39.8486L649.134 33.0469H650.454L648.047 43H647.104L647.596 39.8486ZM645.183 33.0469L647.104 39.9922L647.801 43H646.851L644.8 35.7471L644.24 33.0469H645.183ZM655.77 41.7354V37.9277C655.77 37.6361 655.711 37.3831 655.592 37.1689C655.478 36.9502 655.305 36.7816 655.073 36.6631C654.84 36.5446 654.553 36.4854 654.211 36.4854C653.892 36.4854 653.612 36.54 653.371 36.6494C653.134 36.7588 652.947 36.9023 652.81 37.0801C652.678 37.2578 652.612 37.4492 652.612 37.6543H651.347C651.347 37.39 651.416 37.1279 651.552 36.8682C651.689 36.6084 651.885 36.3737 652.14 36.1641C652.4 35.9499 652.71 35.7812 653.07 35.6582C653.434 35.5306 653.84 35.4668 654.287 35.4668C654.824 35.4668 655.298 35.5579 655.708 35.7402C656.123 35.9225 656.447 36.1982 656.679 36.5674C656.916 36.932 657.035 37.39 657.035 37.9414V41.3867C657.035 41.6328 657.055 41.8949 657.096 42.1729C657.142 42.4508 657.208 42.6901 657.294 42.8906V43H655.975C655.911 42.8542 655.861 42.6605 655.825 42.4189C655.788 42.1729 655.77 41.945 655.77 41.7354ZM655.989 38.5156L656.002 39.4043H654.724C654.364 39.4043 654.043 39.4339 653.76 39.4932C653.478 39.5479 653.241 39.6322 653.049 39.7461C652.858 39.86 652.712 40.0036 652.612 40.1768C652.512 40.3454 652.461 40.5436 652.461 40.7715C652.461 41.0039 652.514 41.2158 652.619 41.4072C652.723 41.5986 652.881 41.7513 653.09 41.8652C653.305 41.9746 653.567 42.0293 653.876 42.0293C654.264 42.0293 654.606 41.9473 654.902 41.7832C655.198 41.6191 655.433 41.4186 655.606 41.1816C655.784 40.9447 655.879 40.7145 655.893 40.4912L656.433 41.0996C656.401 41.291 656.315 41.5029 656.173 41.7354C656.032 41.9678 655.843 42.1911 655.606 42.4053C655.374 42.6149 655.096 42.7904 654.772 42.9316C654.453 43.0684 654.093 43.1367 653.692 43.1367C653.191 43.1367 652.751 43.0387 652.373 42.8428C651.999 42.6468 651.707 42.3848 651.498 42.0566C651.292 41.724 651.19 41.3525 651.19 40.9424C651.19 40.5459 651.267 40.1973 651.422 39.8965C651.577 39.5911 651.801 39.3382 652.092 39.1377C652.384 38.9326 652.735 38.7777 653.145 38.6729C653.555 38.568 654.013 38.5156 654.519 38.5156H655.989ZM660.205 36.7656V43H658.94V35.6035H660.17L660.205 36.7656ZM662.515 35.5625L662.508 36.7383C662.403 36.7155 662.303 36.7018 662.207 36.6973C662.116 36.6882 662.012 36.6836 661.893 36.6836C661.601 36.6836 661.344 36.7292 661.121 36.8203C660.897 36.9115 660.708 37.0391 660.553 37.2031C660.398 37.3672 660.275 37.5632 660.184 37.791C660.097 38.0143 660.04 38.2604 660.013 38.5293L659.658 38.7344C659.658 38.2878 659.701 37.8685 659.788 37.4766C659.879 37.0846 660.018 36.7383 660.205 36.4375C660.391 36.1322 660.628 35.8952 660.915 35.7266C661.207 35.5534 661.554 35.4668 661.955 35.4668C662.046 35.4668 662.151 35.4782 662.269 35.501C662.388 35.5192 662.47 35.5397 662.515 35.5625ZM664.865 37.1826V43H663.6V35.6035H664.796L664.865 37.1826ZM664.564 39.0215L664.038 39.001C664.042 38.4951 664.117 38.028 664.263 37.5996C664.409 37.1667 664.614 36.7907 664.878 36.4717C665.143 36.1527 665.457 35.9066 665.822 35.7334C666.191 35.5557 666.599 35.4668 667.045 35.4668C667.41 35.4668 667.738 35.5169 668.03 35.6172C668.321 35.7129 668.57 35.8678 668.775 36.082C668.984 36.2962 669.144 36.5742 669.253 36.916C669.363 37.2533 669.417 37.6657 669.417 38.1533V43H668.146V38.1396C668.146 37.7523 668.089 37.4424 667.975 37.21C667.861 36.973 667.695 36.8021 667.476 36.6973C667.257 36.5879 666.988 36.5332 666.669 36.5332C666.355 36.5332 666.068 36.5993 665.808 36.7314C665.553 36.8636 665.332 37.0459 665.145 37.2783C664.963 37.5107 664.819 37.7773 664.714 38.0781C664.614 38.3743 664.564 38.6888 664.564 39.0215ZM672.628 35.6035V43H671.357V35.6035H672.628ZM671.261 33.6416C671.261 33.4365 671.323 33.2633 671.446 33.1221C671.573 32.9808 671.76 32.9102 672.006 32.9102C672.248 32.9102 672.432 32.9808 672.56 33.1221C672.692 33.2633 672.758 33.4365 672.758 33.6416C672.758 33.8376 672.692 34.0062 672.56 34.1475C672.432 34.2842 672.248 34.3525 672.006 34.3525C671.76 34.3525 671.573 34.2842 671.446 34.1475C671.323 34.0062 671.261 33.8376 671.261 33.6416ZM675.839 37.1826V43H674.575V35.6035H675.771L675.839 37.1826ZM675.538 39.0215L675.012 39.001C675.017 38.4951 675.092 38.028 675.238 37.5996C675.384 37.1667 675.589 36.7907 675.853 36.4717C676.117 36.1527 676.432 35.9066 676.796 35.7334C677.165 35.5557 677.573 35.4668 678.02 35.4668C678.385 35.4668 678.713 35.5169 679.004 35.6172C679.296 35.7129 679.544 35.8678 679.749 36.082C679.959 36.2962 680.119 36.5742 680.228 36.916C680.337 37.2533 680.392 37.6657 680.392 38.1533V43H679.121V38.1396C679.121 37.7523 679.064 37.4424 678.95 37.21C678.836 36.973 678.669 36.8021 678.451 36.6973C678.232 36.5879 677.963 36.5332 677.644 36.5332C677.33 36.5332 677.042 36.5993 676.783 36.7314C676.527 36.8636 676.306 37.0459 676.12 37.2783C675.937 37.5107 675.794 37.7773 675.689 38.0781C675.589 38.3743 675.538 38.6888 675.538 39.0215ZM687.021 35.6035H688.169V42.8428C688.169 43.4945 688.037 44.0505 687.773 44.5107C687.509 44.971 687.139 45.3197 686.665 45.5566C686.196 45.7982 685.654 45.9189 685.038 45.9189C684.783 45.9189 684.482 45.8779 684.136 45.7959C683.794 45.7184 683.457 45.584 683.124 45.3926C682.796 45.2057 682.521 44.9528 682.297 44.6338L682.96 43.8818C683.27 44.2555 683.594 44.5153 683.931 44.6611C684.273 44.807 684.61 44.8799 684.943 44.8799C685.344 44.8799 685.69 44.8047 685.982 44.6543C686.274 44.5039 686.499 44.2806 686.659 43.9844C686.823 43.6927 686.905 43.3327 686.905 42.9043V37.2305L687.021 35.6035ZM681.928 39.3838V39.2402C681.928 38.6751 681.994 38.1624 682.126 37.7021C682.263 37.2373 682.457 36.8385 682.707 36.5059C682.963 36.1732 683.27 35.918 683.63 35.7402C683.99 35.5579 684.396 35.4668 684.847 35.4668C685.312 35.4668 685.718 35.5488 686.064 35.7129C686.415 35.8724 686.711 36.1071 686.953 36.417C687.199 36.7223 687.392 37.0915 687.534 37.5244C687.675 37.9574 687.773 38.4473 687.828 38.9941V39.623C687.777 40.1654 687.679 40.653 687.534 41.0859C687.392 41.5189 687.199 41.888 686.953 42.1934C686.711 42.4987 686.415 42.7334 686.064 42.8975C685.713 43.057 685.303 43.1367 684.833 43.1367C684.391 43.1367 683.99 43.0433 683.63 42.8564C683.275 42.6696 682.969 42.4076 682.714 42.0703C682.459 41.7331 682.263 41.3366 682.126 40.8809C681.994 40.4206 681.928 39.9215 681.928 39.3838ZM683.193 39.2402V39.3838C683.193 39.7529 683.229 40.0993 683.302 40.4229C683.38 40.7464 683.496 41.0312 683.651 41.2773C683.81 41.5234 684.013 41.7171 684.259 41.8584C684.505 41.9951 684.799 42.0635 685.141 42.0635C685.56 42.0635 685.907 41.9746 686.18 41.7969C686.454 41.6191 686.67 41.3844 686.829 41.0928C686.994 40.8011 687.121 40.4844 687.212 40.1426V38.4951C687.162 38.2445 687.085 38.0029 686.98 37.7705C686.88 37.5335 686.747 37.3239 686.583 37.1416C686.424 36.9548 686.226 36.8066 685.989 36.6973C685.752 36.5879 685.474 36.5332 685.155 36.5332C684.808 36.5332 684.51 36.6061 684.259 36.752C684.013 36.8932 683.81 37.0892 683.651 37.3398C683.496 37.5859 683.38 37.873 683.302 38.2012C683.229 38.5247 683.193 38.8711 683.193 39.2402Z" fill="#757575"/>
<rect x="845" y="0.5" width="53" height="19" rx="3.5" fill="#E8FFF2"/>
<path d="M858.691 7.56534C858.646 7.16193 858.458 6.84943 858.129 6.62784C857.799 6.40341 857.385 6.29119 856.885 6.29119C856.527 6.29119 856.217 6.34801 855.956 6.46165C855.694 6.57244 855.491 6.72585 855.346 6.92188C855.204 7.11506 855.133 7.33523 855.133 7.58239C855.133 7.78977 855.181 7.96875 855.278 8.11932C855.377 8.26989 855.507 8.39631 855.666 8.49858C855.828 8.59801 856.001 8.68182 856.186 8.75C856.37 8.81534 856.548 8.86932 856.718 8.91193L857.571 9.13352C857.849 9.2017 858.135 9.29403 858.427 9.41051C858.72 9.52699 858.991 9.6804 859.241 9.87074C859.491 10.0611 859.693 10.2969 859.846 10.5781C860.002 10.8594 860.081 11.196 860.081 11.5881C860.081 12.0824 859.953 12.5213 859.697 12.9048C859.444 13.2884 859.076 13.5909 858.593 13.8125C858.113 14.0341 857.532 14.1449 856.85 14.1449C856.197 14.1449 855.632 14.0412 855.154 13.8338C854.677 13.6264 854.304 13.3324 854.034 12.9517C853.764 12.5682 853.615 12.1136 853.586 11.5881H854.907C854.933 11.9034 855.035 12.1662 855.214 12.3764C855.396 12.5838 855.627 12.7386 855.909 12.8409C856.193 12.9403 856.504 12.9901 856.842 12.9901C857.214 12.9901 857.545 12.9318 857.835 12.8153C858.127 12.696 858.358 12.5312 858.525 12.321C858.693 12.108 858.777 11.8594 858.777 11.5753C858.777 11.3168 858.703 11.1051 858.555 10.9403C858.41 10.7756 858.213 10.6392 857.963 10.5312C857.716 10.4233 857.436 10.3281 857.123 10.2457L856.092 9.96449C855.393 9.77415 854.839 9.49432 854.43 9.125C854.024 8.75568 853.821 8.26705 853.821 7.65909C853.821 7.15625 853.957 6.71733 854.23 6.34233C854.502 5.96733 854.872 5.67614 855.338 5.46875C855.804 5.25852 856.329 5.15341 856.914 5.15341C857.505 5.15341 858.027 5.2571 858.478 5.46449C858.933 5.67188 859.291 5.95739 859.552 6.32102C859.814 6.68182 859.95 7.09659 859.961 7.56534H858.691ZM864.607 7.45455V8.47727H861.032V7.45455H864.607ZM861.991 5.88636H863.265V12.0781C863.265 12.3253 863.302 12.5114 863.376 12.6364C863.45 12.7585 863.545 12.8423 863.661 12.8878C863.781 12.9304 863.91 12.9517 864.049 12.9517C864.151 12.9517 864.241 12.9446 864.317 12.9304C864.394 12.9162 864.454 12.9048 864.496 12.8963L864.727 13.9489C864.653 13.9773 864.548 14.0057 864.411 14.0341C864.275 14.0653 864.104 14.0824 863.9 14.0852C863.565 14.0909 863.252 14.0312 862.962 13.9062C862.673 13.7812 862.438 13.5881 862.259 13.3267C862.08 13.0653 861.991 12.7372 861.991 12.3423V5.88636ZM867.922 14.1449C867.507 14.1449 867.132 14.0682 866.797 13.9148C866.461 13.7585 866.196 13.5327 866 13.2372C865.806 12.9418 865.71 12.5795 865.71 12.1506C865.71 11.7812 865.781 11.4773 865.923 11.2386C866.065 11 866.257 10.8111 866.498 10.6719C866.74 10.5327 867.01 10.4276 867.308 10.3565C867.606 10.2855 867.91 10.2315 868.22 10.1946C868.612 10.1491 868.93 10.1122 869.174 10.0838C869.419 10.0526 869.596 10.0028 869.707 9.93466C869.818 9.86648 869.873 9.75568 869.873 9.60227V9.57244C869.873 9.20028 869.768 8.91193 869.558 8.70739C869.35 8.50284 869.041 8.40057 868.629 8.40057C868.2 8.40057 867.862 8.49574 867.615 8.68608C867.37 8.87358 867.201 9.08239 867.108 9.3125L865.91 9.03977C866.052 8.64205 866.26 8.32102 866.532 8.0767C866.808 7.82955 867.125 7.65057 867.483 7.53977C867.841 7.42614 868.217 7.36932 868.612 7.36932C868.873 7.36932 869.15 7.40057 869.443 7.46307C869.738 7.52273 870.014 7.63352 870.27 7.79545C870.528 7.95739 870.74 8.18892 870.904 8.49006C871.069 8.78835 871.152 9.17614 871.152 9.65341V14H869.907V13.1051H869.856C869.774 13.2699 869.65 13.4318 869.485 13.5909C869.321 13.75 869.109 13.8821 868.85 13.9872C868.592 14.0923 868.282 14.1449 867.922 14.1449ZM868.199 13.1222C868.551 13.1222 868.852 13.0526 869.102 12.9134C869.355 12.7741 869.547 12.5923 869.677 12.3679C869.811 12.1406 869.877 11.8977 869.877 11.6392V10.7955C869.832 10.8409 869.744 10.8835 869.613 10.9233C869.485 10.9602 869.339 10.9929 869.174 11.0213C869.01 11.0469 868.849 11.071 868.693 11.0938C868.537 11.1136 868.406 11.1307 868.301 11.1449C868.054 11.1761 867.828 11.2287 867.623 11.3026C867.422 11.3764 867.26 11.483 867.137 11.6222C867.018 11.7585 866.958 11.9403 866.958 12.1676C866.958 12.483 867.075 12.7216 867.308 12.8835C867.541 13.0426 867.838 13.1222 868.199 13.1222ZM875.904 7.45455V8.47727H872.329V7.45455H875.904ZM873.288 5.88636H874.562V12.0781C874.562 12.3253 874.599 12.5114 874.673 12.6364C874.746 12.7585 874.842 12.8423 874.958 12.8878C875.077 12.9304 875.207 12.9517 875.346 12.9517C875.448 12.9517 875.538 12.9446 875.614 12.9304C875.691 12.9162 875.751 12.9048 875.793 12.8963L876.023 13.9489C875.95 13.9773 875.844 14.0057 875.708 14.0341C875.572 14.0653 875.401 14.0824 875.197 14.0852C874.862 14.0909 874.549 14.0312 874.259 13.9062C873.969 13.7812 873.735 13.5881 873.556 13.3267C873.377 13.0653 873.288 12.7372 873.288 12.3423V5.88636ZM881.46 11.2855V7.45455H882.738V14H881.485V12.8665H881.417C881.267 13.2159 881.025 13.5071 880.693 13.7401C880.363 13.9702 879.953 14.0852 879.461 14.0852C879.041 14.0852 878.669 13.9929 878.345 13.8082C878.024 13.6207 877.771 13.3438 877.586 12.9773C877.404 12.6108 877.314 12.1577 877.314 11.6179V7.45455H878.588V11.4645C878.588 11.9105 878.711 12.2656 878.958 12.5298C879.206 12.794 879.527 12.9261 879.922 12.9261C880.16 12.9261 880.397 12.8665 880.633 12.7472C880.872 12.6278 881.069 12.4474 881.225 12.206C881.385 11.9645 881.463 11.6577 881.46 11.2855ZM889.355 9.05256L888.2 9.2571C888.152 9.10937 888.075 8.96875 887.97 8.83523C887.868 8.7017 887.729 8.59233 887.553 8.5071C887.376 8.42187 887.156 8.37926 886.892 8.37926C886.531 8.37926 886.23 8.46023 885.989 8.62216C885.747 8.78125 885.626 8.98722 885.626 9.24006C885.626 9.45881 885.707 9.63494 885.869 9.76847C886.031 9.90199 886.293 10.0114 886.653 10.0966L887.693 10.3352C888.295 10.4744 888.744 10.6889 889.04 10.9787C889.335 11.2685 889.483 11.6449 889.483 12.108C889.483 12.5 889.369 12.8494 889.142 13.1562C888.918 13.4602 888.604 13.6989 888.2 13.8722C887.8 14.0455 887.335 14.1321 886.807 14.1321C886.074 14.1321 885.476 13.9759 885.013 13.6634C884.55 13.348 884.266 12.9006 884.161 12.321L885.392 12.1335C885.469 12.4545 885.626 12.6974 885.865 12.8622C886.104 13.0241 886.415 13.1051 886.798 13.1051C887.216 13.1051 887.55 13.0185 887.8 12.8452C888.05 12.669 888.175 12.4545 888.175 12.2017C888.175 11.9972 888.098 11.8253 887.945 11.6861C887.794 11.5469 887.562 11.4418 887.25 11.3707L886.142 11.1278C885.531 10.9886 885.08 10.767 884.787 10.4631C884.497 10.1591 884.352 9.77415 884.352 9.30824C884.352 8.92187 884.46 8.58381 884.676 8.29403C884.892 8.00426 885.19 7.77841 885.571 7.61648C885.952 7.4517 886.388 7.36932 886.879 7.36932C887.587 7.36932 888.143 7.52273 888.55 7.82955C888.956 8.13352 889.224 8.54119 889.355 9.05256Z" fill="#2ECC71"/>
<rect x="845" y="0.5" width="53" height="19" rx="3.5" stroke="#B9EED0"/>
<path d="M851.46 40.4844C851.46 40.252 851.424 40.0469 851.351 39.8691C851.282 39.6868 851.159 39.5228 850.981 39.377C850.808 39.2311 850.567 39.0921 850.257 38.96C849.951 38.8278 849.564 38.6934 849.095 38.5566C848.603 38.4108 848.158 38.249 847.762 38.0713C847.365 37.889 847.026 37.6816 846.743 37.4492C846.461 37.2168 846.244 36.9502 846.094 36.6494C845.943 36.3486 845.868 36.0046 845.868 35.6172C845.868 35.2298 845.948 34.8721 846.107 34.5439C846.267 34.2158 846.495 33.931 846.791 33.6895C847.092 33.4434 847.45 33.252 847.864 33.1152C848.279 32.9785 848.742 32.9102 849.252 32.9102C849.999 32.9102 850.633 33.0537 851.152 33.3408C851.676 33.6234 852.075 33.9948 852.349 34.4551C852.622 34.9108 852.759 35.3984 852.759 35.918H851.446C851.446 35.5443 851.367 35.2139 851.207 34.9268C851.048 34.6351 850.806 34.4072 850.482 34.2432C850.159 34.0745 849.749 33.9902 849.252 33.9902C848.783 33.9902 848.395 34.0609 848.09 34.2021C847.785 34.3434 847.557 34.5348 847.406 34.7764C847.26 35.0179 847.188 35.2936 847.188 35.6035C847.188 35.8132 847.231 36.0046 847.317 36.1777C847.409 36.3464 847.548 36.5036 847.734 36.6494C847.926 36.7952 848.167 36.9297 848.459 37.0527C848.755 37.1758 849.108 37.2943 849.519 37.4082C850.084 37.5677 850.571 37.7454 850.981 37.9414C851.392 38.1374 851.729 38.3584 851.993 38.6045C852.262 38.846 852.46 39.1217 852.588 39.4316C852.72 39.737 852.786 40.0833 852.786 40.4707C852.786 40.8763 852.704 41.2432 852.54 41.5713C852.376 41.8994 852.141 42.1797 851.836 42.4121C851.531 42.6445 851.164 42.8245 850.735 42.9521C850.312 43.0752 849.838 43.1367 849.313 43.1367C848.853 43.1367 848.4 43.0729 847.953 42.9453C847.511 42.8177 847.108 42.6263 846.743 42.3711C846.383 42.1159 846.094 41.8014 845.875 41.4277C845.661 41.0495 845.554 40.612 845.554 40.1152H846.866C846.866 40.457 846.932 40.751 847.064 40.9971C847.197 41.2386 847.377 41.4391 847.604 41.5986C847.837 41.7581 848.099 41.8766 848.391 41.9541C848.687 42.027 848.994 42.0635 849.313 42.0635C849.774 42.0635 850.163 41.9997 850.482 41.8721C850.801 41.7445 851.043 41.5622 851.207 41.3252C851.376 41.0882 851.46 40.8079 851.46 40.4844ZM858.718 41.291V35.6035H859.989V43H858.779L858.718 41.291ZM858.957 39.7324L859.483 39.7188C859.483 40.2109 859.431 40.6667 859.326 41.0859C859.226 41.5007 859.062 41.8607 858.834 42.166C858.606 42.4714 858.308 42.7106 857.938 42.8838C857.569 43.0524 857.12 43.1367 856.592 43.1367C856.232 43.1367 855.901 43.0843 855.601 42.9795C855.304 42.8747 855.049 42.7129 854.835 42.4941C854.621 42.2754 854.454 41.9906 854.336 41.6396C854.222 41.2887 854.165 40.8672 854.165 40.375V35.6035H855.43V40.3887C855.43 40.7214 855.466 40.9971 855.539 41.2158C855.617 41.43 855.719 41.6009 855.847 41.7285C855.979 41.8516 856.125 41.9382 856.284 41.9883C856.448 42.0384 856.617 42.0635 856.79 42.0635C857.328 42.0635 857.754 41.9609 858.068 41.7559C858.383 41.5462 858.608 41.266 858.745 40.915C858.886 40.5596 858.957 40.1654 858.957 39.7324ZM864.793 42.0977C865.094 42.0977 865.372 42.0361 865.627 41.9131C865.882 41.79 866.092 41.6214 866.256 41.4072C866.42 41.1885 866.513 40.9401 866.536 40.6621H867.739C867.716 41.0996 867.568 41.5075 867.295 41.8857C867.026 42.2594 866.673 42.5625 866.235 42.7949C865.798 43.0228 865.317 43.1367 864.793 43.1367C864.237 43.1367 863.752 43.0387 863.337 42.8428C862.927 42.6468 862.585 42.3779 862.311 42.0361C862.043 41.6943 861.84 41.3024 861.703 40.8604C861.571 40.4137 861.505 39.9421 861.505 39.4453V39.1582C861.505 38.6615 861.571 38.1921 861.703 37.75C861.84 37.3034 862.043 36.9092 862.311 36.5674C862.585 36.2256 862.927 35.9567 863.337 35.7607C863.752 35.5648 864.237 35.4668 864.793 35.4668C865.372 35.4668 865.878 35.5853 866.311 35.8223C866.743 36.0547 867.083 36.3737 867.329 36.7793C867.58 37.1803 867.716 37.6361 867.739 38.1465H866.536C866.513 37.8411 866.427 37.5654 866.276 37.3193C866.131 37.0732 865.93 36.8773 865.675 36.7314C865.424 36.5811 865.13 36.5059 864.793 36.5059C864.406 36.5059 864.08 36.5833 863.815 36.7383C863.556 36.8887 863.348 37.0938 863.193 37.3535C863.043 37.6087 862.934 37.8936 862.865 38.208C862.801 38.5179 862.769 38.8346 862.769 39.1582V39.4453C862.769 39.7689 862.801 40.0879 862.865 40.4023C862.929 40.7168 863.036 41.0016 863.186 41.2568C863.341 41.512 863.549 41.7171 863.809 41.8721C864.073 42.0225 864.401 42.0977 864.793 42.0977ZM872.037 42.0977C872.338 42.0977 872.616 42.0361 872.871 41.9131C873.126 41.79 873.336 41.6214 873.5 41.4072C873.664 41.1885 873.757 40.9401 873.78 40.6621H874.983C874.961 41.0996 874.812 41.5075 874.539 41.8857C874.27 42.2594 873.917 42.5625 873.479 42.7949C873.042 43.0228 872.561 43.1367 872.037 43.1367C871.481 43.1367 870.996 43.0387 870.581 42.8428C870.171 42.6468 869.829 42.3779 869.556 42.0361C869.287 41.6943 869.084 41.3024 868.947 40.8604C868.815 40.4137 868.749 39.9421 868.749 39.4453V39.1582C868.749 38.6615 868.815 38.1921 868.947 37.75C869.084 37.3034 869.287 36.9092 869.556 36.5674C869.829 36.2256 870.171 35.9567 870.581 35.7607C870.996 35.5648 871.481 35.4668 872.037 35.4668C872.616 35.4668 873.122 35.5853 873.555 35.8223C873.988 36.0547 874.327 36.3737 874.573 36.7793C874.824 37.1803 874.961 37.6361 874.983 38.1465H873.78C873.757 37.8411 873.671 37.5654 873.52 37.3193C873.375 37.0732 873.174 36.8773 872.919 36.7314C872.668 36.5811 872.374 36.5059 872.037 36.5059C871.65 36.5059 871.324 36.5833 871.06 36.7383C870.8 36.8887 870.592 37.0938 870.437 37.3535C870.287 37.6087 870.178 37.8936 870.109 38.208C870.046 38.5179 870.014 38.8346 870.014 39.1582V39.4453C870.014 39.7689 870.046 40.0879 870.109 40.4023C870.173 40.7168 870.28 41.0016 870.431 41.2568C870.586 41.512 870.793 41.7171 871.053 41.8721C871.317 42.0225 871.645 42.0977 872.037 42.0977ZM879.391 43.1367C878.876 43.1367 878.408 43.0501 877.989 42.877C877.574 42.6992 877.217 42.4508 876.916 42.1318C876.62 41.8128 876.392 41.4346 876.232 40.9971C876.073 40.5596 875.993 40.0811 875.993 39.5615V39.2744C875.993 38.6729 876.082 38.1374 876.26 37.668C876.437 37.194 876.679 36.793 876.984 36.4648C877.29 36.1367 877.636 35.8883 878.023 35.7197C878.411 35.5511 878.812 35.4668 879.226 35.4668C879.755 35.4668 880.211 35.5579 880.594 35.7402C880.981 35.9225 881.298 36.1777 881.544 36.5059C881.79 36.8294 881.972 37.2122 882.091 37.6543C882.209 38.0918 882.268 38.5703 882.268 39.0898V39.6572H876.745V38.625H881.004V38.5293C880.986 38.2012 880.917 37.8822 880.799 37.5723C880.685 37.2624 880.503 37.0072 880.252 36.8066C880.001 36.6061 879.659 36.5059 879.226 36.5059C878.939 36.5059 878.675 36.5674 878.434 36.6904C878.192 36.8089 877.985 36.9867 877.811 37.2236C877.638 37.4606 877.504 37.75 877.408 38.0918C877.312 38.4336 877.265 38.8278 877.265 39.2744V39.5615C877.265 39.9124 877.312 40.2428 877.408 40.5527C877.508 40.8581 877.652 41.127 877.839 41.3594C878.03 41.5918 878.26 41.7741 878.529 41.9062C878.803 42.0384 879.113 42.1045 879.459 42.1045C879.906 42.1045 880.284 42.0133 880.594 41.8311C880.904 41.6488 881.175 41.4049 881.407 41.0996L882.173 41.708C882.013 41.9495 881.81 42.1797 881.564 42.3984C881.318 42.6172 881.015 42.7949 880.655 42.9316C880.3 43.0684 879.878 43.1367 879.391 43.1367ZM887.968 41.0381C887.968 40.8558 887.927 40.6872 887.845 40.5322C887.767 40.3727 887.605 40.2292 887.359 40.1016C887.118 39.9694 886.753 39.8555 886.266 39.7598C885.855 39.6732 885.484 39.5706 885.151 39.4521C884.823 39.3337 884.543 39.1901 884.31 39.0215C884.083 38.8529 883.907 38.6546 883.784 38.4268C883.661 38.1989 883.6 37.9323 883.6 37.627C883.6 37.3353 883.663 37.0596 883.791 36.7998C883.923 36.54 884.108 36.3099 884.345 36.1094C884.586 35.9089 884.876 35.7516 885.213 35.6377C885.55 35.5238 885.926 35.4668 886.341 35.4668C886.933 35.4668 887.439 35.5716 887.858 35.7812C888.278 35.9909 888.599 36.2712 888.822 36.6221C889.045 36.9684 889.157 37.3535 889.157 37.7773H887.893C887.893 37.5723 887.831 37.374 887.708 37.1826C887.589 36.9867 887.414 36.8249 887.182 36.6973C886.954 36.5697 886.673 36.5059 886.341 36.5059C885.99 36.5059 885.705 36.5605 885.486 36.6699C885.272 36.7747 885.115 36.9092 885.015 37.0732C884.919 37.2373 884.871 37.4105 884.871 37.5928C884.871 37.7295 884.894 37.8525 884.939 37.9619C884.99 38.0667 885.076 38.1647 885.199 38.2559C885.322 38.3424 885.495 38.4245 885.719 38.502C885.942 38.5794 886.227 38.6569 886.573 38.7344C887.179 38.8711 887.678 39.0352 888.07 39.2266C888.462 39.418 888.754 39.6527 888.945 39.9307C889.137 40.2087 889.232 40.5459 889.232 40.9424C889.232 41.266 889.164 41.5622 889.027 41.8311C888.895 42.0999 888.701 42.3324 888.446 42.5283C888.196 42.7197 887.895 42.8701 887.544 42.9795C887.198 43.0843 886.808 43.1367 886.375 43.1367C885.723 43.1367 885.172 43.0205 884.721 42.7881C884.269 42.5557 883.928 42.2549 883.695 41.8857C883.463 41.5166 883.347 41.127 883.347 40.7168H884.618C884.636 41.0632 884.737 41.3389 884.919 41.5439C885.101 41.7445 885.324 41.888 885.589 41.9746C885.853 42.0566 886.115 42.0977 886.375 42.0977C886.721 42.0977 887.011 42.0521 887.243 41.9609C887.48 41.8698 887.66 41.7445 887.783 41.585C887.906 41.4255 887.968 41.2432 887.968 41.0381ZM895.116 41.0381C895.116 40.8558 895.075 40.6872 894.993 40.5322C894.916 40.3727 894.754 40.2292 894.508 40.1016C894.266 39.9694 893.902 39.8555 893.414 39.7598C893.004 39.6732 892.632 39.5706 892.3 39.4521C891.972 39.3337 891.691 39.1901 891.459 39.0215C891.231 38.8529 891.056 38.6546 890.933 38.4268C890.809 38.1989 890.748 37.9323 890.748 37.627C890.748 37.3353 890.812 37.0596 890.939 36.7998C891.072 36.54 891.256 36.3099 891.493 36.1094C891.735 35.9089 892.024 35.7516 892.361 35.6377C892.698 35.5238 893.074 35.4668 893.489 35.4668C894.082 35.4668 894.587 35.5716 895.007 35.7812C895.426 35.9909 895.747 36.2712 895.971 36.6221C896.194 36.9684 896.306 37.3535 896.306 37.7773H895.041C895.041 37.5723 894.979 37.374 894.856 37.1826C894.738 36.9867 894.562 36.8249 894.33 36.6973C894.102 36.5697 893.822 36.5059 893.489 36.5059C893.138 36.5059 892.853 36.5605 892.635 36.6699C892.42 36.7747 892.263 36.9092 892.163 37.0732C892.067 37.2373 892.019 37.4105 892.019 37.5928C892.019 37.7295 892.042 37.8525 892.088 37.9619C892.138 38.0667 892.225 38.1647 892.348 38.2559C892.471 38.3424 892.644 38.4245 892.867 38.502C893.09 38.5794 893.375 38.6569 893.722 38.7344C894.328 38.8711 894.827 39.0352 895.219 39.2266C895.611 39.418 895.902 39.6527 896.094 39.9307C896.285 40.2087 896.381 40.5459 896.381 40.9424C896.381 41.266 896.312 41.5622 896.176 41.8311C896.044 42.0999 895.85 42.3324 895.595 42.5283C895.344 42.7197 895.043 42.8701 894.692 42.9795C894.346 43.0843 893.956 43.1367 893.523 43.1367C892.872 43.1367 892.32 43.0205 891.869 42.7881C891.418 42.5557 891.076 42.2549 890.844 41.8857C890.611 41.5166 890.495 41.127 890.495 40.7168H891.767C891.785 41.0632 891.885 41.3389 892.067 41.5439C892.25 41.7445 892.473 41.888 892.737 41.9746C893.002 42.0566 893.264 42.0977 893.523 42.0977C893.87 42.0977 894.159 42.0521 894.392 41.9609C894.628 41.8698 894.808 41.7445 894.932 41.585C895.055 41.4255 895.116 41.2432 895.116 41.0381Z" fill="#757575"/>
<rect x="1052.67" y="0.5" width="53" height="19" rx="3.5" fill="#EFF7FF"/>
<path d="M1066.36 7.56534C1066.31 7.16193 1066.12 6.84943 1065.79 6.62784C1065.47 6.40341 1065.05 6.29119 1064.55 6.29119C1064.19 6.29119 1063.88 6.34801 1063.62 6.46165C1063.36 6.57244 1063.16 6.72585 1063.01 6.92188C1062.87 7.11506 1062.8 7.33523 1062.8 7.58239C1062.8 7.78977 1062.85 7.96875 1062.94 8.11932C1063.04 8.26989 1063.17 8.39631 1063.33 8.49858C1063.49 8.59801 1063.67 8.68182 1063.85 8.75C1064.04 8.81534 1064.21 8.86932 1064.38 8.91193L1065.24 9.13352C1065.52 9.2017 1065.8 9.29403 1066.09 9.41051C1066.39 9.52699 1066.66 9.6804 1066.91 9.87074C1067.16 10.0611 1067.36 10.2969 1067.51 10.5781C1067.67 10.8594 1067.75 11.196 1067.75 11.5881C1067.75 12.0824 1067.62 12.5213 1067.36 12.9048C1067.11 13.2884 1066.74 13.5909 1066.26 13.8125C1065.78 14.0341 1065.2 14.1449 1064.52 14.1449C1063.86 14.1449 1063.3 14.0412 1062.82 13.8338C1062.34 13.6264 1061.97 13.3324 1061.7 12.9517C1061.43 12.5682 1061.28 12.1136 1061.25 11.5881H1062.57C1062.6 11.9034 1062.7 12.1662 1062.88 12.3764C1063.06 12.5838 1063.29 12.7386 1063.57 12.8409C1063.86 12.9403 1064.17 12.9901 1064.51 12.9901C1064.88 12.9901 1065.21 12.9318 1065.5 12.8153C1065.79 12.696 1066.02 12.5312 1066.19 12.321C1066.36 12.108 1066.44 11.8594 1066.44 11.5753C1066.44 11.3168 1066.37 11.1051 1066.22 10.9403C1066.08 10.7756 1065.88 10.6392 1065.63 10.5312C1065.38 10.4233 1065.1 10.3281 1064.79 10.2457L1063.76 9.96449C1063.06 9.77415 1062.51 9.49432 1062.1 9.125C1061.69 8.75568 1061.49 8.26705 1061.49 7.65909C1061.49 7.15625 1061.62 6.71733 1061.9 6.34233C1062.17 5.96733 1062.54 5.67614 1063 5.46875C1063.47 5.25852 1064 5.15341 1064.58 5.15341C1065.17 5.15341 1065.69 5.2571 1066.14 5.46449C1066.6 5.67188 1066.96 5.95739 1067.22 6.32102C1067.48 6.68182 1067.62 7.09659 1067.63 7.56534H1066.36ZM1072.27 7.45455V8.47727H1068.7V7.45455H1072.27ZM1069.66 5.88636H1070.93V12.0781C1070.93 12.3253 1070.97 12.5114 1071.04 12.6364C1071.12 12.7585 1071.21 12.8423 1071.33 12.8878C1071.45 12.9304 1071.58 12.9517 1071.72 12.9517C1071.82 12.9517 1071.91 12.9446 1071.98 12.9304C1072.06 12.9162 1072.12 12.9048 1072.16 12.8963L1072.39 13.9489C1072.32 13.9773 1072.21 14.0057 1072.08 14.0341C1071.94 14.0653 1071.77 14.0824 1071.57 14.0852C1071.23 14.0909 1070.92 14.0312 1070.63 13.9062C1070.34 13.7812 1070.1 13.5881 1069.93 13.3267C1069.75 13.0653 1069.66 12.7372 1069.66 12.3423V5.88636ZM1075.59 14.1449C1075.17 14.1449 1074.8 14.0682 1074.46 13.9148C1074.13 13.7585 1073.86 13.5327 1073.67 13.2372C1073.47 12.9418 1073.38 12.5795 1073.38 12.1506C1073.38 11.7812 1073.45 11.4773 1073.59 11.2386C1073.73 11 1073.92 10.8111 1074.16 10.6719C1074.41 10.5327 1074.68 10.4276 1074.97 10.3565C1075.27 10.2855 1075.58 10.2315 1075.89 10.1946C1076.28 10.1491 1076.6 10.1122 1076.84 10.0838C1077.08 10.0526 1077.26 10.0028 1077.37 9.93466C1077.48 9.86648 1077.54 9.75568 1077.54 9.60227V9.57244C1077.54 9.20028 1077.43 8.91193 1077.22 8.70739C1077.02 8.50284 1076.71 8.40057 1076.29 8.40057C1075.87 8.40057 1075.53 8.49574 1075.28 8.68608C1075.04 8.87358 1074.87 9.08239 1074.77 9.3125L1073.58 9.03977C1073.72 8.64205 1073.93 8.32102 1074.2 8.0767C1074.47 7.82955 1074.79 7.65057 1075.15 7.53977C1075.51 7.42614 1075.88 7.36932 1076.28 7.36932C1076.54 7.36932 1076.82 7.40057 1077.11 7.46307C1077.4 7.52273 1077.68 7.63352 1077.94 7.79545C1078.19 7.95739 1078.41 8.18892 1078.57 8.49006C1078.74 8.78835 1078.82 9.17614 1078.82 9.65341V14H1077.57V13.1051H1077.52C1077.44 13.2699 1077.32 13.4318 1077.15 13.5909C1076.99 13.75 1076.78 13.8821 1076.52 13.9872C1076.26 14.0923 1075.95 14.1449 1075.59 14.1449ZM1075.86 13.1222C1076.22 13.1222 1076.52 13.0526 1076.77 12.9134C1077.02 12.7741 1077.21 12.5923 1077.34 12.3679C1077.48 12.1406 1077.54 11.8977 1077.54 11.6392V10.7955C1077.5 10.8409 1077.41 10.8835 1077.28 10.9233C1077.15 10.9602 1077.01 10.9929 1076.84 11.0213C1076.68 11.0469 1076.52 11.071 1076.36 11.0938C1076.2 11.1136 1076.07 11.1307 1075.97 11.1449C1075.72 11.1761 1075.49 11.2287 1075.29 11.3026C1075.09 11.3764 1074.93 11.483 1074.8 11.6222C1074.68 11.7585 1074.62 11.9403 1074.62 12.1676C1074.62 12.483 1074.74 12.7216 1074.97 12.8835C1075.21 13.0426 1075.5 13.1222 1075.86 13.1222ZM1083.57 7.45455V8.47727H1079.99V7.45455H1083.57ZM1080.95 5.88636H1082.23V12.0781C1082.23 12.3253 1082.26 12.5114 1082.34 12.6364C1082.41 12.7585 1082.51 12.8423 1082.62 12.8878C1082.74 12.9304 1082.87 12.9517 1083.01 12.9517C1083.11 12.9517 1083.2 12.9446 1083.28 12.9304C1083.36 12.9162 1083.42 12.9048 1083.46 12.8963L1083.69 13.9489C1083.62 13.9773 1083.51 14.0057 1083.37 14.0341C1083.24 14.0653 1083.07 14.0824 1082.86 14.0852C1082.53 14.0909 1082.22 14.0312 1081.93 13.9062C1081.64 13.7812 1081.4 13.5881 1081.22 13.3267C1081.04 13.0653 1080.95 12.7372 1080.95 12.3423V5.88636ZM1089.13 11.2855V7.45455H1090.4V14H1089.15V12.8665H1089.08C1088.93 13.2159 1088.69 13.5071 1088.36 13.7401C1088.03 13.9702 1087.62 14.0852 1087.13 14.0852C1086.71 14.0852 1086.33 13.9929 1086.01 13.8082C1085.69 13.6207 1085.44 13.3438 1085.25 12.9773C1085.07 12.6108 1084.98 12.1577 1084.98 11.6179V7.45455H1086.25V11.4645C1086.25 11.9105 1086.38 12.2656 1086.62 12.5298C1086.87 12.794 1087.19 12.9261 1087.59 12.9261C1087.83 12.9261 1088.06 12.8665 1088.3 12.7472C1088.54 12.6278 1088.74 12.4474 1088.89 12.206C1089.05 11.9645 1089.13 11.6577 1089.13 11.2855ZM1097.02 9.05256L1095.87 9.2571C1095.82 9.10937 1095.74 8.96875 1095.64 8.83523C1095.53 8.7017 1095.39 8.59233 1095.22 8.5071C1095.04 8.42187 1094.82 8.37926 1094.56 8.37926C1094.2 8.37926 1093.9 8.46023 1093.65 8.62216C1093.41 8.78125 1093.29 8.98722 1093.29 9.24006C1093.29 9.45881 1093.37 9.63494 1093.54 9.76847C1093.7 9.90199 1093.96 10.0114 1094.32 10.0966L1095.36 10.3352C1095.96 10.4744 1096.41 10.6889 1096.71 10.9787C1097 11.2685 1097.15 11.6449 1097.15 12.108C1097.15 12.5 1097.04 12.8494 1096.81 13.1562C1096.58 13.4602 1096.27 13.6989 1095.87 13.8722C1095.47 14.0455 1095 14.1321 1094.47 14.1321C1093.74 14.1321 1093.14 13.9759 1092.68 13.6634C1092.22 13.348 1091.93 12.9006 1091.83 12.321L1093.06 12.1335C1093.13 12.4545 1093.29 12.6974 1093.53 12.8622C1093.77 13.0241 1094.08 13.1051 1094.46 13.1051C1094.88 13.1051 1095.22 13.0185 1095.47 12.8452C1095.72 12.669 1095.84 12.4545 1095.84 12.2017C1095.84 11.9972 1095.76 11.8253 1095.61 11.6861C1095.46 11.5469 1095.23 11.4418 1094.92 11.3707L1093.81 11.1278C1093.2 10.9886 1092.75 10.767 1092.45 10.4631C1092.16 10.1591 1092.02 9.77415 1092.02 9.30824C1092.02 8.92187 1092.13 8.58381 1092.34 8.29403C1092.56 8.00426 1092.86 7.77841 1093.24 7.61648C1093.62 7.4517 1094.05 7.36932 1094.55 7.36932C1095.25 7.36932 1095.81 7.52273 1096.22 7.82955C1096.62 8.13352 1096.89 8.54119 1097.02 9.05256Z" fill="#0060B8"/>
<rect x="1052.67" y="0.5" width="53" height="19" rx="3.5" stroke="#AACAE7"/>
<path d="M1069.24 33.0469V43H1067.92V33.0469H1069.24ZM1072.62 37.1826V43H1071.36V35.6035H1072.56L1072.62 37.1826ZM1072.32 39.0215L1071.8 39.001C1071.8 38.4951 1071.88 38.028 1072.02 37.5996C1072.17 37.1667 1072.37 36.7907 1072.64 36.4717C1072.9 36.1527 1073.22 35.9066 1073.58 35.7334C1073.95 35.5557 1074.36 35.4668 1074.81 35.4668C1075.17 35.4668 1075.5 35.5169 1075.79 35.6172C1076.08 35.7129 1076.33 35.8678 1076.54 36.082C1076.74 36.2962 1076.9 36.5742 1077.01 36.916C1077.12 37.2533 1077.18 37.6657 1077.18 38.1533V43H1075.91V38.1396C1075.91 37.7523 1075.85 37.4424 1075.74 37.21C1075.62 36.973 1075.46 36.8021 1075.24 36.6973C1075.02 36.5879 1074.75 36.5332 1074.43 36.5332C1074.12 36.5332 1073.83 36.5993 1073.57 36.7314C1073.31 36.8636 1073.09 37.0459 1072.91 37.2783C1072.72 37.5107 1072.58 37.7773 1072.47 38.0781C1072.37 38.3743 1072.32 38.6888 1072.32 39.0215ZM1080.9 43H1079.64V34.8242C1079.64 34.291 1079.73 33.8421 1079.92 33.4775C1080.12 33.1084 1080.4 32.8304 1080.76 32.6436C1081.13 32.4521 1081.56 32.3564 1082.06 32.3564C1082.21 32.3564 1082.36 32.3656 1082.5 32.3838C1082.65 32.402 1082.8 32.4294 1082.94 32.4658L1082.87 33.498C1082.77 33.4753 1082.67 33.4593 1082.54 33.4502C1082.42 33.4411 1082.3 33.4365 1082.19 33.4365C1081.92 33.4365 1081.69 33.4912 1081.49 33.6006C1081.3 33.7054 1081.15 33.8604 1081.05 34.0654C1080.95 34.2705 1080.9 34.5234 1080.9 34.8242V43ZM1082.47 35.6035V36.5742H1078.47V35.6035H1082.47ZM1083.46 39.3838V39.2266C1083.46 38.6934 1083.54 38.1989 1083.7 37.7432C1083.85 37.2829 1084.07 36.8841 1084.37 36.5469C1084.66 36.2051 1085.01 35.9408 1085.42 35.7539C1085.84 35.5625 1086.3 35.4668 1086.82 35.4668C1087.34 35.4668 1087.81 35.5625 1088.22 35.7539C1088.64 35.9408 1089 36.2051 1089.29 36.5469C1089.58 36.8841 1089.81 37.2829 1089.96 37.7432C1090.12 38.1989 1090.2 38.6934 1090.2 39.2266V39.3838C1090.2 39.917 1090.12 40.4115 1089.96 40.8672C1089.81 41.3229 1089.58 41.7217 1089.29 42.0635C1089 42.4007 1088.64 42.665 1088.23 42.8564C1087.82 43.0433 1087.35 43.1367 1086.83 43.1367C1086.31 43.1367 1085.85 43.0433 1085.43 42.8564C1085.02 42.665 1084.66 42.4007 1084.37 42.0635C1084.07 41.7217 1083.85 41.3229 1083.7 40.8672C1083.54 40.4115 1083.46 39.917 1083.46 39.3838ZM1084.73 39.2266V39.3838C1084.73 39.7529 1084.77 40.1016 1084.86 40.4297C1084.94 40.7533 1085.07 41.0404 1085.25 41.291C1085.42 41.5417 1085.65 41.7399 1085.91 41.8857C1086.17 42.027 1086.48 42.0977 1086.83 42.0977C1087.18 42.0977 1087.48 42.027 1087.74 41.8857C1088.01 41.7399 1088.23 41.5417 1088.4 41.291C1088.57 41.0404 1088.7 40.7533 1088.79 40.4297C1088.88 40.1016 1088.92 39.7529 1088.92 39.3838V39.2266C1088.92 38.862 1088.88 38.5179 1088.79 38.1943C1088.7 37.8662 1088.57 37.5768 1088.39 37.3262C1088.22 37.071 1088 36.8704 1087.74 36.7246C1087.48 36.5788 1087.17 36.5059 1086.82 36.5059C1086.47 36.5059 1086.17 36.5788 1085.9 36.7246C1085.64 36.8704 1085.42 37.071 1085.25 37.3262C1085.07 37.5768 1084.94 37.8662 1084.86 38.1943C1084.77 38.5179 1084.73 38.862 1084.73 39.2266Z" fill="#757575"/>
</svg>
